<svg xmlns="http://www.w3.org/2000/svg" width="764.1259842519685" height="521.1338582677165" viewBox="0 0 764.1259842519685 521.1338582677165" font-family="ui-sans-serif,system-ui,sans-serif">
<rect x="0" y="0" width="764.1259842519685" height="521.1338582677165" fill="#f8fafc"/>
<rect x="112.1259842519685" y="56" width="320" height="416" fill="#0e7a5f" stroke="#0b3d2e"/>
<circle cx="120.1259842519685" cy="64" r="2" fill="#0b3d2e"/>
<circle cx="120.1259842519685" cy="80" r="2" fill="#0b3d2e"/>
<circle cx="120.1259842519685" cy="96" r="2" fill="#0b3d2e"/>
<circle cx="120.1259842519685" cy="112" r="2" fill="#0b3d2e"/>
<circle cx="120.1259842519685" cy="128" r="2" fill="#0b3d2e"/>
<circle cx="120.1259842519685" cy="144" r="2" fill="#0b3d2e"/>
<circle cx="120.1259842519685" cy="160" r="2" fill="#0b3d2e"/>
<circle cx="120.1259842519685" cy="176" r="2" fill="#0b3d2e"/>
<circle cx="120.1259842519685" cy="192" r="2" fill="#0b3d2e"/>
<circle cx="120.1259842519685" cy="208" r="2" fill="#0b3d2e"/>
<circle cx="120.1259842519685" cy="224" r="2" fill="#0b3d2e"/>
<circle cx="120.1259842519685" cy="240" r="2" fill="#0b3d2e"/>
<circle cx="120.1259842519685" cy="256" r="2" fill="#0b3d2e"/>
<circle cx="120.1259842519685" cy="272" r="2" fill="#0b3d2e"/>
<circle cx="120.1259842519685" cy="288" r="2" fill="#0b3d2e"/>
<circle cx="120.1259842519685" cy="304" r="2" fill="#0b3d2e"/>
<circle cx="120.1259842519685" cy="320" r="2" fill="#0b3d2e"/>
<circle cx="120.1259842519685" cy="336" r="2" fill="#0b3d2e"/>
<circle cx="120.1259842519685" cy="352" r="2" fill="#0b3d2e"/>
<circle cx="120.1259842519685" cy="368" r="2" fill="#0b3d2e"/>
<circle cx="120.1259842519685" cy="384" r="2" fill="#0b3d2e"/>
<circle cx="120.1259842519685" cy="400" r="2" fill="#0b3d2e"/>
<circle cx="120.1259842519685" cy="416" r="2" fill="#0b3d2e"/>
<circle cx="120.1259842519685" cy="432" r="2" fill="#0b3d2e"/>
<circle cx="120.1259842519685" cy="448" r="2" fill="#0b3d2e"/>
<circle cx="120.1259842519685" cy="464" r="2" fill="#0b3d2e"/>
<circle cx="136.1259842519685" cy="64" r="2" fill="#0b3d2e"/>
<circle cx="136.1259842519685" cy="80" r="2" fill="#0b3d2e"/>
<circle cx="136.1259842519685" cy="96" r="2" fill="#0b3d2e"/>
<circle cx="136.1259842519685" cy="112" r="2" fill="#0b3d2e"/>
<circle cx="136.1259842519685" cy="128" r="2" fill="#0b3d2e"/>
<circle cx="136.1259842519685" cy="144" r="2" fill="#0b3d2e"/>
<circle cx="136.1259842519685" cy="160" r="2" fill="#0b3d2e"/>
<circle cx="136.1259842519685" cy="176" r="2" fill="#0b3d2e"/>
<circle cx="136.1259842519685" cy="192" r="2" fill="#0b3d2e"/>
<circle cx="136.1259842519685" cy="208" r="2" fill="#0b3d2e"/>
<circle cx="136.1259842519685" cy="224" r="2" fill="#0b3d2e"/>
<circle cx="136.1259842519685" cy="240" r="2" fill="#0b3d2e"/>
<circle cx="136.1259842519685" cy="256" r="2" fill="#0b3d2e"/>
<circle cx="136.1259842519685" cy="272" r="2" fill="#0b3d2e"/>
<circle cx="136.1259842519685" cy="288" r="2" fill="#0b3d2e"/>
<circle cx="136.1259842519685" cy="304" r="2" fill="#0b3d2e"/>
<circle cx="136.1259842519685" cy="320" r="2" fill="#0b3d2e"/>
<circle cx="136.1259842519685" cy="336" r="2" fill="#0b3d2e"/>
<circle cx="136.1259842519685" cy="352" r="2" fill="#0b3d2e"/>
<circle cx="136.1259842519685" cy="368" r="2" fill="#0b3d2e"/>
<circle cx="136.1259842519685" cy="384" r="2" fill="#0b3d2e"/>
<circle cx="136.1259842519685" cy="400" r="2" fill="#0b3d2e"/>
<circle cx="136.1259842519685" cy="416" r="2" fill="#0b3d2e"/>
<circle cx="136.1259842519685" cy="432" r="2" fill="#0b3d2e"/>
<circle cx="136.1259842519685" cy="448" r="2" fill="#0b3d2e"/>
<circle cx="136.1259842519685" cy="464" r="2" fill="#0b3d2e"/>
<circle cx="152.1259842519685" cy="64" r="2" fill="#0b3d2e"/>
<circle cx="152.1259842519685" cy="80" r="2" fill="#0b3d2e"/>
<circle cx="152.1259842519685" cy="96" r="2" fill="#0b3d2e"/>
<circle cx="152.1259842519685" cy="112" r="2" fill="#0b3d2e"/>
<circle cx="152.1259842519685" cy="128" r="2" fill="#0b3d2e"/>
<circle cx="152.1259842519685" cy="144" r="2" fill="#0b3d2e"/>
<circle cx="152.1259842519685" cy="160" r="2" fill="#0b3d2e"/>
<circle cx="152.1259842519685" cy="176" r="2" fill="#0b3d2e"/>
<circle cx="152.1259842519685" cy="192" r="2" fill="#0b3d2e"/>
<circle cx="152.1259842519685" cy="208" r="2" fill="#0b3d2e"/>
<circle cx="152.1259842519685" cy="224" r="2" fill="#0b3d2e"/>
<circle cx="152.1259842519685" cy="240" r="2" fill="#0b3d2e"/>
<circle cx="152.1259842519685" cy="256" r="2" fill="#0b3d2e"/>
<circle cx="152.1259842519685" cy="272" r="2" fill="#0b3d2e"/>
<circle cx="152.1259842519685" cy="288" r="2" fill="#0b3d2e"/>
<circle cx="152.1259842519685" cy="304" r="2" fill="#0b3d2e"/>
<circle cx="152.1259842519685" cy="320" r="2" fill="#0b3d2e"/>
<circle cx="152.1259842519685" cy="336" r="2" fill="#0b3d2e"/>
<circle cx="152.1259842519685" cy="352" r="2" fill="#0b3d2e"/>
<circle cx="152.1259842519685" cy="368" r="2" fill="#0b3d2e"/>
<circle cx="152.1259842519685" cy="384" r="2" fill="#0b3d2e"/>
<circle cx="152.1259842519685" cy="400" r="2" fill="#0b3d2e"/>
<circle cx="152.1259842519685" cy="416" r="2" fill="#0b3d2e"/>
<circle cx="152.1259842519685" cy="432" r="2" fill="#0b3d2e"/>
<circle cx="152.1259842519685" cy="448" r="2" fill="#0b3d2e"/>
<circle cx="152.1259842519685" cy="464" r="2" fill="#0b3d2e"/>
<circle cx="168.1259842519685" cy="64" r="2" fill="#0b3d2e"/>
<circle cx="168.1259842519685" cy="80" r="2" fill="#0b3d2e"/>
<circle cx="168.1259842519685" cy="96" r="2" fill="#0b3d2e"/>
<circle cx="168.1259842519685" cy="112" r="2" fill="#0b3d2e"/>
<circle cx="168.1259842519685" cy="128" r="2" fill="#0b3d2e"/>
<circle cx="168.1259842519685" cy="144" r="2" fill="#0b3d2e"/>
<circle cx="168.1259842519685" cy="160" r="2" fill="#0b3d2e"/>
<circle cx="168.1259842519685" cy="176" r="2" fill="#0b3d2e"/>
<circle cx="168.1259842519685" cy="192" r="2" fill="#0b3d2e"/>
<circle cx="168.1259842519685" cy="208" r="2" fill="#0b3d2e"/>
<circle cx="168.1259842519685" cy="224" r="2" fill="#0b3d2e"/>
<circle cx="168.1259842519685" cy="240" r="2" fill="#0b3d2e"/>
<circle cx="168.1259842519685" cy="256" r="2" fill="#0b3d2e"/>
<circle cx="168.1259842519685" cy="272" r="2" fill="#0b3d2e"/>
<circle cx="168.1259842519685" cy="288" r="2" fill="#0b3d2e"/>
<circle cx="168.1259842519685" cy="304" r="2" fill="#0b3d2e"/>
<circle cx="168.1259842519685" cy="320" r="2" fill="#0b3d2e"/>
<circle cx="168.1259842519685" cy="336" r="2" fill="#0b3d2e"/>
<circle cx="168.1259842519685" cy="352" r="2" fill="#0b3d2e"/>
<circle cx="168.1259842519685" cy="368" r="2" fill="#0b3d2e"/>
<circle cx="168.1259842519685" cy="384" r="2" fill="#0b3d2e"/>
<circle cx="168.1259842519685" cy="400" r="2" fill="#0b3d2e"/>
<circle cx="168.1259842519685" cy="416" r="2" fill="#0b3d2e"/>
<circle cx="168.1259842519685" cy="432" r="2" fill="#0b3d2e"/>
<circle cx="168.1259842519685" cy="448" r="2" fill="#0b3d2e"/>
<circle cx="168.1259842519685" cy="464" r="2" fill="#0b3d2e"/>
<circle cx="184.1259842519685" cy="64" r="2" fill="#0b3d2e"/>
<circle cx="184.1259842519685" cy="80" r="2" fill="#0b3d2e"/>
<circle cx="184.1259842519685" cy="96" r="2" fill="#0b3d2e"/>
<circle cx="184.1259842519685" cy="112" r="2" fill="#0b3d2e"/>
<circle cx="184.1259842519685" cy="128" r="2" fill="#0b3d2e"/>
<circle cx="184.1259842519685" cy="144" r="2" fill="#0b3d2e"/>
<circle cx="184.1259842519685" cy="160" r="2" fill="#0b3d2e"/>
<circle cx="184.1259842519685" cy="176" r="2" fill="#0b3d2e"/>
<circle cx="184.1259842519685" cy="192" r="2" fill="#0b3d2e"/>
<circle cx="184.1259842519685" cy="208" r="2" fill="#0b3d2e"/>
<circle cx="184.1259842519685" cy="224" r="2" fill="#0b3d2e"/>
<circle cx="184.1259842519685" cy="240" r="2" fill="#0b3d2e"/>
<circle cx="184.1259842519685" cy="256" r="2" fill="#0b3d2e"/>
<circle cx="184.1259842519685" cy="272" r="2" fill="#0b3d2e"/>
<circle cx="184.1259842519685" cy="288" r="2" fill="#0b3d2e"/>
<circle cx="184.1259842519685" cy="304" r="2" fill="#0b3d2e"/>
<circle cx="184.1259842519685" cy="320" r="2" fill="#0b3d2e"/>
<circle cx="184.1259842519685" cy="336" r="2" fill="#0b3d2e"/>
<circle cx="184.1259842519685" cy="352" r="2" fill="#0b3d2e"/>
<circle cx="184.1259842519685" cy="368" r="2" fill="#0b3d2e"/>
<circle cx="184.1259842519685" cy="384" r="2" fill="#0b3d2e"/>
<circle cx="184.1259842519685" cy="400" r="2" fill="#0b3d2e"/>
<circle cx="184.1259842519685" cy="416" r="2" fill="#0b3d2e"/>
<circle cx="184.1259842519685" cy="432" r="2" fill="#0b3d2e"/>
<circle cx="184.1259842519685" cy="448" r="2" fill="#0b3d2e"/>
<circle cx="184.1259842519685" cy="464" r="2" fill="#0b3d2e"/>
<circle cx="200.1259842519685" cy="64" r="2" fill="#0b3d2e"/>
<circle cx="200.1259842519685" cy="80" r="2" fill="#0b3d2e"/>
<circle cx="200.1259842519685" cy="96" r="2" fill="#0b3d2e"/>
<circle cx="200.1259842519685" cy="112" r="2" fill="#0b3d2e"/>
<circle cx="200.1259842519685" cy="128" r="2" fill="#0b3d2e"/>
<circle cx="200.1259842519685" cy="144" r="2" fill="#0b3d2e"/>
<circle cx="200.1259842519685" cy="160" r="2" fill="#0b3d2e"/>
<circle cx="200.1259842519685" cy="176" r="2" fill="#0b3d2e"/>
<circle cx="200.1259842519685" cy="192" r="2" fill="#0b3d2e"/>
<circle cx="200.1259842519685" cy="208" r="2" fill="#0b3d2e"/>
<circle cx="200.1259842519685" cy="224" r="2" fill="#0b3d2e"/>
<circle cx="200.1259842519685" cy="240" r="2" fill="#0b3d2e"/>
<circle cx="200.1259842519685" cy="256" r="2" fill="#0b3d2e"/>
<circle cx="200.1259842519685" cy="272" r="2" fill="#0b3d2e"/>
<circle cx="200.1259842519685" cy="288" r="2" fill="#0b3d2e"/>
<circle cx="200.1259842519685" cy="304" r="2" fill="#0b3d2e"/>
<circle cx="200.1259842519685" cy="320" r="2" fill="#0b3d2e"/>
<circle cx="200.1259842519685" cy="336" r="2" fill="#0b3d2e"/>
<circle cx="200.1259842519685" cy="352" r="2" fill="#0b3d2e"/>
<circle cx="200.1259842519685" cy="368" r="2" fill="#0b3d2e"/>
<circle cx="200.1259842519685" cy="384" r="2" fill="#0b3d2e"/>
<circle cx="200.1259842519685" cy="400" r="2" fill="#0b3d2e"/>
<circle cx="200.1259842519685" cy="416" r="2" fill="#0b3d2e"/>
<circle cx="200.1259842519685" cy="432" r="2" fill="#0b3d2e"/>
<circle cx="200.1259842519685" cy="448" r="2" fill="#0b3d2e"/>
<circle cx="200.1259842519685" cy="464" r="2" fill="#0b3d2e"/>
<circle cx="216.1259842519685" cy="64" r="2" fill="#0b3d2e"/>
<circle cx="216.1259842519685" cy="80" r="2" fill="#0b3d2e"/>
<circle cx="216.1259842519685" cy="96" r="2" fill="#0b3d2e"/>
<circle cx="216.1259842519685" cy="112" r="2" fill="#0b3d2e"/>
<circle cx="216.1259842519685" cy="128" r="2" fill="#0b3d2e"/>
<circle cx="216.1259842519685" cy="144" r="2" fill="#0b3d2e"/>
<circle cx="216.1259842519685" cy="160" r="2" fill="#0b3d2e"/>
<circle cx="216.1259842519685" cy="176" r="2" fill="#0b3d2e"/>
<circle cx="216.1259842519685" cy="192" r="2" fill="#0b3d2e"/>
<circle cx="216.1259842519685" cy="208" r="2" fill="#0b3d2e"/>
<circle cx="216.1259842519685" cy="224" r="2" fill="#0b3d2e"/>
<circle cx="216.1259842519685" cy="240" r="2" fill="#0b3d2e"/>
<circle cx="216.1259842519685" cy="256" r="2" fill="#0b3d2e"/>
<circle cx="216.1259842519685" cy="272" r="2" fill="#0b3d2e"/>
<circle cx="216.1259842519685" cy="288" r="2" fill="#0b3d2e"/>
<circle cx="216.1259842519685" cy="304" r="2" fill="#0b3d2e"/>
<circle cx="216.1259842519685" cy="320" r="2" fill="#0b3d2e"/>
<circle cx="216.1259842519685" cy="336" r="2" fill="#0b3d2e"/>
<circle cx="216.1259842519685" cy="352" r="2" fill="#0b3d2e"/>
<circle cx="216.1259842519685" cy="368" r="2" fill="#0b3d2e"/>
<circle cx="216.1259842519685" cy="384" r="2" fill="#0b3d2e"/>
<circle cx="216.1259842519685" cy="400" r="2" fill="#0b3d2e"/>
<circle cx="216.1259842519685" cy="416" r="2" fill="#0b3d2e"/>
<circle cx="216.1259842519685" cy="432" r="2" fill="#0b3d2e"/>
<circle cx="216.1259842519685" cy="448" r="2" fill="#0b3d2e"/>
<circle cx="216.1259842519685" cy="464" r="2" fill="#0b3d2e"/>
<circle cx="232.1259842519685" cy="64" r="2" fill="#0b3d2e"/>
<circle cx="232.1259842519685" cy="80" r="2" fill="#0b3d2e"/>
<circle cx="232.1259842519685" cy="96" r="2" fill="#0b3d2e"/>
<circle cx="232.1259842519685" cy="112" r="2" fill="#0b3d2e"/>
<circle cx="232.1259842519685" cy="128" r="2" fill="#0b3d2e"/>
<circle cx="232.1259842519685" cy="144" r="2" fill="#0b3d2e"/>
<circle cx="232.1259842519685" cy="160" r="2" fill="#0b3d2e"/>
<circle cx="232.1259842519685" cy="176" r="2" fill="#0b3d2e"/>
<circle cx="232.1259842519685" cy="192" r="2" fill="#0b3d2e"/>
<circle cx="232.1259842519685" cy="208" r="2" fill="#0b3d2e"/>
<circle cx="232.1259842519685" cy="224" r="2" fill="#0b3d2e"/>
<circle cx="232.1259842519685" cy="240" r="2" fill="#0b3d2e"/>
<circle cx="232.1259842519685" cy="256" r="2" fill="#0b3d2e"/>
<circle cx="232.1259842519685" cy="272" r="2" fill="#0b3d2e"/>
<circle cx="232.1259842519685" cy="288" r="2" fill="#0b3d2e"/>
<circle cx="232.1259842519685" cy="304" r="2" fill="#0b3d2e"/>
<circle cx="232.1259842519685" cy="320" r="2" fill="#0b3d2e"/>
<circle cx="232.1259842519685" cy="336" r="2" fill="#0b3d2e"/>
<circle cx="232.1259842519685" cy="352" r="2" fill="#0b3d2e"/>
<circle cx="232.1259842519685" cy="368" r="2" fill="#0b3d2e"/>
<circle cx="232.1259842519685" cy="384" r="2" fill="#0b3d2e"/>
<circle cx="232.1259842519685" cy="400" r="2" fill="#0b3d2e"/>
<circle cx="232.1259842519685" cy="416" r="2" fill="#0b3d2e"/>
<circle cx="232.1259842519685" cy="432" r="2" fill="#0b3d2e"/>
<circle cx="232.1259842519685" cy="448" r="2" fill="#0b3d2e"/>
<circle cx="232.1259842519685" cy="464" r="2" fill="#0b3d2e"/>
<circle cx="248.1259842519685" cy="64" r="2" fill="#0b3d2e"/>
<circle cx="248.1259842519685" cy="80" r="2" fill="#0b3d2e"/>
<circle cx="248.1259842519685" cy="96" r="2" fill="#0b3d2e"/>
<circle cx="248.1259842519685" cy="112" r="2" fill="#0b3d2e"/>
<circle cx="248.1259842519685" cy="128" r="2" fill="#0b3d2e"/>
<circle cx="248.1259842519685" cy="144" r="2" fill="#0b3d2e"/>
<circle cx="248.1259842519685" cy="160" r="2" fill="#0b3d2e"/>
<circle cx="248.1259842519685" cy="176" r="2" fill="#0b3d2e"/>
<circle cx="248.1259842519685" cy="192" r="2" fill="#0b3d2e"/>
<circle cx="248.1259842519685" cy="208" r="2" fill="#0b3d2e"/>
<circle cx="248.1259842519685" cy="224" r="2" fill="#0b3d2e"/>
<circle cx="248.1259842519685" cy="240" r="2" fill="#0b3d2e"/>
<circle cx="248.1259842519685" cy="256" r="2" fill="#0b3d2e"/>
<circle cx="248.1259842519685" cy="272" r="2" fill="#0b3d2e"/>
<circle cx="248.1259842519685" cy="288" r="2" fill="#0b3d2e"/>
<circle cx="248.1259842519685" cy="304" r="2" fill="#0b3d2e"/>
<circle cx="248.1259842519685" cy="320" r="2" fill="#0b3d2e"/>
<circle cx="248.1259842519685" cy="336" r="2" fill="#0b3d2e"/>
<circle cx="248.1259842519685" cy="352" r="2" fill="#0b3d2e"/>
<circle cx="248.1259842519685" cy="368" r="2" fill="#0b3d2e"/>
<circle cx="248.1259842519685" cy="384" r="2" fill="#0b3d2e"/>
<circle cx="248.1259842519685" cy="400" r="2" fill="#0b3d2e"/>
<circle cx="248.1259842519685" cy="416" r="2" fill="#0b3d2e"/>
<circle cx="248.1259842519685" cy="432" r="2" fill="#0b3d2e"/>
<circle cx="248.1259842519685" cy="448" r="2" fill="#0b3d2e"/>
<circle cx="248.1259842519685" cy="464" r="2" fill="#0b3d2e"/>
<circle cx="264.1259842519685" cy="64" r="2" fill="#0b3d2e"/>
<circle cx="264.1259842519685" cy="80" r="2" fill="#0b3d2e"/>
<circle cx="264.1259842519685" cy="96" r="2" fill="#0b3d2e"/>
<circle cx="264.1259842519685" cy="112" r="2" fill="#0b3d2e"/>
<circle cx="264.1259842519685" cy="128" r="2" fill="#0b3d2e"/>
<circle cx="264.1259842519685" cy="144" r="2" fill="#0b3d2e"/>
<circle cx="264.1259842519685" cy="160" r="2" fill="#0b3d2e"/>
<circle cx="264.1259842519685" cy="176" r="2" fill="#0b3d2e"/>
<circle cx="264.1259842519685" cy="192" r="2" fill="#0b3d2e"/>
<circle cx="264.1259842519685" cy="208" r="2" fill="#0b3d2e"/>
<circle cx="264.1259842519685" cy="224" r="2" fill="#0b3d2e"/>
<circle cx="264.1259842519685" cy="240" r="2" fill="#0b3d2e"/>
<circle cx="264.1259842519685" cy="256" r="2" fill="#0b3d2e"/>
<circle cx="264.1259842519685" cy="272" r="2" fill="#0b3d2e"/>
<circle cx="264.1259842519685" cy="288" r="2" fill="#0b3d2e"/>
<circle cx="264.1259842519685" cy="304" r="2" fill="#0b3d2e"/>
<circle cx="264.1259842519685" cy="320" r="2" fill="#0b3d2e"/>
<circle cx="264.1259842519685" cy="336" r="2" fill="#0b3d2e"/>
<circle cx="264.1259842519685" cy="352" r="2" fill="#0b3d2e"/>
<circle cx="264.1259842519685" cy="368" r="2" fill="#0b3d2e"/>
<circle cx="264.1259842519685" cy="384" r="2" fill="#0b3d2e"/>
<circle cx="264.1259842519685" cy="400" r="2" fill="#0b3d2e"/>
<circle cx="264.1259842519685" cy="416" r="2" fill="#0b3d2e"/>
<circle cx="264.1259842519685" cy="432" r="2" fill="#0b3d2e"/>
<circle cx="264.1259842519685" cy="448" r="2" fill="#0b3d2e"/>
<circle cx="264.1259842519685" cy="464" r="2" fill="#0b3d2e"/>
<circle cx="280.1259842519685" cy="64" r="2" fill="#0b3d2e"/>
<circle cx="280.1259842519685" cy="80" r="2" fill="#0b3d2e"/>
<circle cx="280.1259842519685" cy="96" r="2" fill="#0b3d2e"/>
<circle cx="280.1259842519685" cy="112" r="2" fill="#0b3d2e"/>
<circle cx="280.1259842519685" cy="128" r="2" fill="#0b3d2e"/>
<circle cx="280.1259842519685" cy="144" r="2" fill="#0b3d2e"/>
<circle cx="280.1259842519685" cy="160" r="2" fill="#0b3d2e"/>
<circle cx="280.1259842519685" cy="176" r="2" fill="#0b3d2e"/>
<circle cx="280.1259842519685" cy="192" r="2" fill="#0b3d2e"/>
<circle cx="280.1259842519685" cy="208" r="2" fill="#0b3d2e"/>
<circle cx="280.1259842519685" cy="224" r="2" fill="#0b3d2e"/>
<circle cx="280.1259842519685" cy="240" r="2" fill="#0b3d2e"/>
<circle cx="280.1259842519685" cy="256" r="2" fill="#0b3d2e"/>
<circle cx="280.1259842519685" cy="272" r="2" fill="#0b3d2e"/>
<circle cx="280.1259842519685" cy="288" r="2" fill="#0b3d2e"/>
<circle cx="280.1259842519685" cy="304" r="2" fill="#0b3d2e"/>
<circle cx="280.1259842519685" cy="320" r="2" fill="#0b3d2e"/>
<circle cx="280.1259842519685" cy="336" r="2" fill="#0b3d2e"/>
<circle cx="280.1259842519685" cy="352" r="2" fill="#0b3d2e"/>
<circle cx="280.1259842519685" cy="368" r="2" fill="#0b3d2e"/>
<circle cx="280.1259842519685" cy="384" r="2" fill="#0b3d2e"/>
<circle cx="280.1259842519685" cy="400" r="2" fill="#0b3d2e"/>
<circle cx="280.1259842519685" cy="416" r="2" fill="#0b3d2e"/>
<circle cx="280.1259842519685" cy="432" r="2" fill="#0b3d2e"/>
<circle cx="280.1259842519685" cy="448" r="2" fill="#0b3d2e"/>
<circle cx="280.1259842519685" cy="464" r="2" fill="#0b3d2e"/>
<circle cx="296.1259842519685" cy="64" r="2" fill="#0b3d2e"/>
<circle cx="296.1259842519685" cy="80" r="2" fill="#0b3d2e"/>
<circle cx="296.1259842519685" cy="96" r="2" fill="#0b3d2e"/>
<circle cx="296.1259842519685" cy="112" r="2" fill="#0b3d2e"/>
<circle cx="296.1259842519685" cy="128" r="2" fill="#0b3d2e"/>
<circle cx="296.1259842519685" cy="144" r="2" fill="#0b3d2e"/>
<circle cx="296.1259842519685" cy="160" r="2" fill="#0b3d2e"/>
<circle cx="296.1259842519685" cy="176" r="2" fill="#0b3d2e"/>
<circle cx="296.1259842519685" cy="192" r="2" fill="#0b3d2e"/>
<circle cx="296.1259842519685" cy="208" r="2" fill="#0b3d2e"/>
<circle cx="296.1259842519685" cy="224" r="2" fill="#0b3d2e"/>
<circle cx="296.1259842519685" cy="240" r="2" fill="#0b3d2e"/>
<circle cx="296.1259842519685" cy="256" r="2" fill="#0b3d2e"/>
<circle cx="296.1259842519685" cy="272" r="2" fill="#0b3d2e"/>
<circle cx="296.1259842519685" cy="288" r="2" fill="#0b3d2e"/>
<circle cx="296.1259842519685" cy="304" r="2" fill="#0b3d2e"/>
<circle cx="296.1259842519685" cy="320" r="2" fill="#0b3d2e"/>
<circle cx="296.1259842519685" cy="336" r="2" fill="#0b3d2e"/>
<circle cx="296.1259842519685" cy="352" r="2" fill="#0b3d2e"/>
<circle cx="296.1259842519685" cy="368" r="2" fill="#0b3d2e"/>
<circle cx="296.1259842519685" cy="384" r="2" fill="#0b3d2e"/>
<circle cx="296.1259842519685" cy="400" r="2" fill="#0b3d2e"/>
<circle cx="296.1259842519685" cy="416" r="2" fill="#0b3d2e"/>
<circle cx="296.1259842519685" cy="432" r="2" fill="#0b3d2e"/>
<circle cx="296.1259842519685" cy="448" r="2" fill="#0b3d2e"/>
<circle cx="296.1259842519685" cy="464" r="2" fill="#0b3d2e"/>
<circle cx="312.1259842519685" cy="64" r="2" fill="#0b3d2e"/>
<circle cx="312.1259842519685" cy="80" r="2" fill="#0b3d2e"/>
<circle cx="312.1259842519685" cy="96" r="2" fill="#0b3d2e"/>
<circle cx="312.1259842519685" cy="112" r="2" fill="#0b3d2e"/>
<circle cx="312.1259842519685" cy="128" r="2" fill="#0b3d2e"/>
<circle cx="312.1259842519685" cy="144" r="2" fill="#0b3d2e"/>
<circle cx="312.1259842519685" cy="160" r="2" fill="#0b3d2e"/>
<circle cx="312.1259842519685" cy="176" r="2" fill="#0b3d2e"/>
<circle cx="312.1259842519685" cy="192" r="2" fill="#0b3d2e"/>
<circle cx="312.1259842519685" cy="208" r="2" fill="#0b3d2e"/>
<circle cx="312.1259842519685" cy="224" r="2" fill="#0b3d2e"/>
<circle cx="312.1259842519685" cy="240" r="2" fill="#0b3d2e"/>
<circle cx="312.1259842519685" cy="256" r="2" fill="#0b3d2e"/>
<circle cx="312.1259842519685" cy="272" r="2" fill="#0b3d2e"/>
<circle cx="312.1259842519685" cy="288" r="2" fill="#0b3d2e"/>
<circle cx="312.1259842519685" cy="304" r="2" fill="#0b3d2e"/>
<circle cx="312.1259842519685" cy="320" r="2" fill="#0b3d2e"/>
<circle cx="312.1259842519685" cy="336" r="2" fill="#0b3d2e"/>
<circle cx="312.1259842519685" cy="352" r="2" fill="#0b3d2e"/>
<circle cx="312.1259842519685" cy="368" r="2" fill="#0b3d2e"/>
<circle cx="312.1259842519685" cy="384" r="2" fill="#0b3d2e"/>
<circle cx="312.1259842519685" cy="400" r="2" fill="#0b3d2e"/>
<circle cx="312.1259842519685" cy="416" r="2" fill="#0b3d2e"/>
<circle cx="312.1259842519685" cy="432" r="2" fill="#0b3d2e"/>
<circle cx="312.1259842519685" cy="448" r="2" fill="#0b3d2e"/>
<circle cx="312.1259842519685" cy="464" r="2" fill="#0b3d2e"/>
<circle cx="328.1259842519685" cy="64" r="2" fill="#0b3d2e"/>
<circle cx="328.1259842519685" cy="80" r="2" fill="#0b3d2e"/>
<circle cx="328.1259842519685" cy="96" r="2" fill="#0b3d2e"/>
<circle cx="328.1259842519685" cy="112" r="2" fill="#0b3d2e"/>
<circle cx="328.1259842519685" cy="128" r="2" fill="#0b3d2e"/>
<circle cx="328.1259842519685" cy="144" r="2" fill="#0b3d2e"/>
<circle cx="328.1259842519685" cy="160" r="2" fill="#0b3d2e"/>
<circle cx="328.1259842519685" cy="176" r="2" fill="#0b3d2e"/>
<circle cx="328.1259842519685" cy="192" r="2" fill="#0b3d2e"/>
<circle cx="328.1259842519685" cy="208" r="2" fill="#0b3d2e"/>
<circle cx="328.1259842519685" cy="224" r="2" fill="#0b3d2e"/>
<circle cx="328.1259842519685" cy="240" r="2" fill="#0b3d2e"/>
<circle cx="328.1259842519685" cy="256" r="2" fill="#0b3d2e"/>
<circle cx="328.1259842519685" cy="272" r="2" fill="#0b3d2e"/>
<circle cx="328.1259842519685" cy="288" r="2" fill="#0b3d2e"/>
<circle cx="328.1259842519685" cy="304" r="2" fill="#0b3d2e"/>
<circle cx="328.1259842519685" cy="320" r="2" fill="#0b3d2e"/>
<circle cx="328.1259842519685" cy="336" r="2" fill="#0b3d2e"/>
<circle cx="328.1259842519685" cy="352" r="2" fill="#0b3d2e"/>
<circle cx="328.1259842519685" cy="368" r="2" fill="#0b3d2e"/>
<circle cx="328.1259842519685" cy="384" r="2" fill="#0b3d2e"/>
<circle cx="328.1259842519685" cy="400" r="2" fill="#0b3d2e"/>
<circle cx="328.1259842519685" cy="416" r="2" fill="#0b3d2e"/>
<circle cx="328.1259842519685" cy="432" r="2" fill="#0b3d2e"/>
<circle cx="328.1259842519685" cy="448" r="2" fill="#0b3d2e"/>
<circle cx="328.1259842519685" cy="464" r="2" fill="#0b3d2e"/>
<circle cx="344.1259842519685" cy="64" r="2" fill="#0b3d2e"/>
<circle cx="344.1259842519685" cy="80" r="2" fill="#0b3d2e"/>
<circle cx="344.1259842519685" cy="96" r="2" fill="#0b3d2e"/>
<circle cx="344.1259842519685" cy="112" r="2" fill="#0b3d2e"/>
<circle cx="344.1259842519685" cy="128" r="2" fill="#0b3d2e"/>
<circle cx="344.1259842519685" cy="144" r="2" fill="#0b3d2e"/>
<circle cx="344.1259842519685" cy="160" r="2" fill="#0b3d2e"/>
<circle cx="344.1259842519685" cy="176" r="2" fill="#0b3d2e"/>
<circle cx="344.1259842519685" cy="192" r="2" fill="#0b3d2e"/>
<circle cx="344.1259842519685" cy="208" r="2" fill="#0b3d2e"/>
<circle cx="344.1259842519685" cy="224" r="2" fill="#0b3d2e"/>
<circle cx="344.1259842519685" cy="240" r="2" fill="#0b3d2e"/>
<circle cx="344.1259842519685" cy="256" r="2" fill="#0b3d2e"/>
<circle cx="344.1259842519685" cy="272" r="2" fill="#0b3d2e"/>
<circle cx="344.1259842519685" cy="288" r="2" fill="#0b3d2e"/>
<circle cx="344.1259842519685" cy="304" r="2" fill="#0b3d2e"/>
<circle cx="344.1259842519685" cy="320" r="2" fill="#0b3d2e"/>
<circle cx="344.1259842519685" cy="336" r="2" fill="#0b3d2e"/>
<circle cx="344.1259842519685" cy="352" r="2" fill="#0b3d2e"/>
<circle cx="344.1259842519685" cy="368" r="2" fill="#0b3d2e"/>
<circle cx="344.1259842519685" cy="384" r="2" fill="#0b3d2e"/>
<circle cx="344.1259842519685" cy="400" r="2" fill="#0b3d2e"/>
<circle cx="344.1259842519685" cy="416" r="2" fill="#0b3d2e"/>
<circle cx="344.1259842519685" cy="432" r="2" fill="#0b3d2e"/>
<circle cx="344.1259842519685" cy="448" r="2" fill="#0b3d2e"/>
<circle cx="344.1259842519685" cy="464" r="2" fill="#0b3d2e"/>
<circle cx="360.1259842519685" cy="64" r="2" fill="#0b3d2e"/>
<circle cx="360.1259842519685" cy="80" r="2" fill="#0b3d2e"/>
<circle cx="360.1259842519685" cy="96" r="2" fill="#0b3d2e"/>
<circle cx="360.1259842519685" cy="112" r="2" fill="#0b3d2e"/>
<circle cx="360.1259842519685" cy="128" r="2" fill="#0b3d2e"/>
<circle cx="360.1259842519685" cy="144" r="2" fill="#0b3d2e"/>
<circle cx="360.1259842519685" cy="160" r="2" fill="#0b3d2e"/>
<circle cx="360.1259842519685" cy="176" r="2" fill="#0b3d2e"/>
<circle cx="360.1259842519685" cy="192" r="2" fill="#0b3d2e"/>
<circle cx="360.1259842519685" cy="208" r="2" fill="#0b3d2e"/>
<circle cx="360.1259842519685" cy="224" r="2" fill="#0b3d2e"/>
<circle cx="360.1259842519685" cy="240" r="2" fill="#0b3d2e"/>
<circle cx="360.1259842519685" cy="256" r="2" fill="#0b3d2e"/>
<circle cx="360.1259842519685" cy="272" r="2" fill="#0b3d2e"/>
<circle cx="360.1259842519685" cy="288" r="2" fill="#0b3d2e"/>
<circle cx="360.1259842519685" cy="304" r="2" fill="#0b3d2e"/>
<circle cx="360.1259842519685" cy="320" r="2" fill="#0b3d2e"/>
<circle cx="360.1259842519685" cy="336" r="2" fill="#0b3d2e"/>
<circle cx="360.1259842519685" cy="352" r="2" fill="#0b3d2e"/>
<circle cx="360.1259842519685" cy="368" r="2" fill="#0b3d2e"/>
<circle cx="360.1259842519685" cy="384" r="2" fill="#0b3d2e"/>
<circle cx="360.1259842519685" cy="400" r="2" fill="#0b3d2e"/>
<circle cx="360.1259842519685" cy="416" r="2" fill="#0b3d2e"/>
<circle cx="360.1259842519685" cy="432" r="2" fill="#0b3d2e"/>
<circle cx="360.1259842519685" cy="448" r="2" fill="#0b3d2e"/>
<circle cx="360.1259842519685" cy="464" r="2" fill="#0b3d2e"/>
<circle cx="376.1259842519685" cy="64" r="2" fill="#0b3d2e"/>
<circle cx="376.1259842519685" cy="80" r="2" fill="#0b3d2e"/>
<circle cx="376.1259842519685" cy="96" r="2" fill="#0b3d2e"/>
<circle cx="376.1259842519685" cy="112" r="2" fill="#0b3d2e"/>
<circle cx="376.1259842519685" cy="128" r="2" fill="#0b3d2e"/>
<circle cx="376.1259842519685" cy="144" r="2" fill="#0b3d2e"/>
<circle cx="376.1259842519685" cy="160" r="2" fill="#0b3d2e"/>
<circle cx="376.1259842519685" cy="176" r="2" fill="#0b3d2e"/>
<circle cx="376.1259842519685" cy="192" r="2" fill="#0b3d2e"/>
<circle cx="376.1259842519685" cy="208" r="2" fill="#0b3d2e"/>
<circle cx="376.1259842519685" cy="224" r="2" fill="#0b3d2e"/>
<circle cx="376.1259842519685" cy="240" r="2" fill="#0b3d2e"/>
<circle cx="376.1259842519685" cy="256" r="2" fill="#0b3d2e"/>
<circle cx="376.1259842519685" cy="272" r="2" fill="#0b3d2e"/>
<circle cx="376.1259842519685" cy="288" r="2" fill="#0b3d2e"/>
<circle cx="376.1259842519685" cy="304" r="2" fill="#0b3d2e"/>
<circle cx="376.1259842519685" cy="320" r="2" fill="#0b3d2e"/>
<circle cx="376.1259842519685" cy="336" r="2" fill="#0b3d2e"/>
<circle cx="376.1259842519685" cy="352" r="2" fill="#0b3d2e"/>
<circle cx="376.1259842519685" cy="368" r="2" fill="#0b3d2e"/>
<circle cx="376.1259842519685" cy="384" r="2" fill="#0b3d2e"/>
<circle cx="376.1259842519685" cy="400" r="2" fill="#0b3d2e"/>
<circle cx="376.1259842519685" cy="416" r="2" fill="#0b3d2e"/>
<circle cx="376.1259842519685" cy="432" r="2" fill="#0b3d2e"/>
<circle cx="376.1259842519685" cy="448" r="2" fill="#0b3d2e"/>
<circle cx="376.1259842519685" cy="464" r="2" fill="#0b3d2e"/>
<circle cx="392.1259842519685" cy="64" r="2" fill="#0b3d2e"/>
<circle cx="392.1259842519685" cy="80" r="2" fill="#0b3d2e"/>
<circle cx="392.1259842519685" cy="96" r="2" fill="#0b3d2e"/>
<circle cx="392.1259842519685" cy="112" r="2" fill="#0b3d2e"/>
<circle cx="392.1259842519685" cy="128" r="2" fill="#0b3d2e"/>
<circle cx="392.1259842519685" cy="144" r="2" fill="#0b3d2e"/>
<circle cx="392.1259842519685" cy="160" r="2" fill="#0b3d2e"/>
<circle cx="392.1259842519685" cy="176" r="2" fill="#0b3d2e"/>
<circle cx="392.1259842519685" cy="192" r="2" fill="#0b3d2e"/>
<circle cx="392.1259842519685" cy="208" r="2" fill="#0b3d2e"/>
<circle cx="392.1259842519685" cy="224" r="2" fill="#0b3d2e"/>
<circle cx="392.1259842519685" cy="240" r="2" fill="#0b3d2e"/>
<circle cx="392.1259842519685" cy="256" r="2" fill="#0b3d2e"/>
<circle cx="392.1259842519685" cy="272" r="2" fill="#0b3d2e"/>
<circle cx="392.1259842519685" cy="288" r="2" fill="#0b3d2e"/>
<circle cx="392.1259842519685" cy="304" r="2" fill="#0b3d2e"/>
<circle cx="392.1259842519685" cy="320" r="2" fill="#0b3d2e"/>
<circle cx="392.1259842519685" cy="336" r="2" fill="#0b3d2e"/>
<circle cx="392.1259842519685" cy="352" r="2" fill="#0b3d2e"/>
<circle cx="392.1259842519685" cy="368" r="2" fill="#0b3d2e"/>
<circle cx="392.1259842519685" cy="384" r="2" fill="#0b3d2e"/>
<circle cx="392.1259842519685" cy="400" r="2" fill="#0b3d2e"/>
<circle cx="392.1259842519685" cy="416" r="2" fill="#0b3d2e"/>
<circle cx="392.1259842519685" cy="432" r="2" fill="#0b3d2e"/>
<circle cx="392.1259842519685" cy="448" r="2" fill="#0b3d2e"/>
<circle cx="392.1259842519685" cy="464" r="2" fill="#0b3d2e"/>
<circle cx="408.1259842519685" cy="64" r="2" fill="#0b3d2e"/>
<circle cx="408.1259842519685" cy="80" r="2" fill="#0b3d2e"/>
<circle cx="408.1259842519685" cy="96" r="2" fill="#0b3d2e"/>
<circle cx="408.1259842519685" cy="112" r="2" fill="#0b3d2e"/>
<circle cx="408.1259842519685" cy="128" r="2" fill="#0b3d2e"/>
<circle cx="408.1259842519685" cy="144" r="2" fill="#0b3d2e"/>
<circle cx="408.1259842519685" cy="160" r="2" fill="#0b3d2e"/>
<circle cx="408.1259842519685" cy="176" r="2" fill="#0b3d2e"/>
<circle cx="408.1259842519685" cy="192" r="2" fill="#0b3d2e"/>
<circle cx="408.1259842519685" cy="208" r="2" fill="#0b3d2e"/>
<circle cx="408.1259842519685" cy="224" r="2" fill="#0b3d2e"/>
<circle cx="408.1259842519685" cy="240" r="2" fill="#0b3d2e"/>
<circle cx="408.1259842519685" cy="256" r="2" fill="#0b3d2e"/>
<circle cx="408.1259842519685" cy="272" r="2" fill="#0b3d2e"/>
<circle cx="408.1259842519685" cy="288" r="2" fill="#0b3d2e"/>
<circle cx="408.1259842519685" cy="304" r="2" fill="#0b3d2e"/>
<circle cx="408.1259842519685" cy="320" r="2" fill="#0b3d2e"/>
<circle cx="408.1259842519685" cy="336" r="2" fill="#0b3d2e"/>
<circle cx="408.1259842519685" cy="352" r="2" fill="#0b3d2e"/>
<circle cx="408.1259842519685" cy="368" r="2" fill="#0b3d2e"/>
<circle cx="408.1259842519685" cy="384" r="2" fill="#0b3d2e"/>
<circle cx="408.1259842519685" cy="400" r="2" fill="#0b3d2e"/>
<circle cx="408.1259842519685" cy="416" r="2" fill="#0b3d2e"/>
<circle cx="408.1259842519685" cy="432" r="2" fill="#0b3d2e"/>
<circle cx="408.1259842519685" cy="448" r="2" fill="#0b3d2e"/>
<circle cx="408.1259842519685" cy="464" r="2" fill="#0b3d2e"/>
<circle cx="424.1259842519685" cy="64" r="2" fill="#0b3d2e"/>
<circle cx="424.1259842519685" cy="80" r="2" fill="#0b3d2e"/>
<circle cx="424.1259842519685" cy="96" r="2" fill="#0b3d2e"/>
<circle cx="424.1259842519685" cy="112" r="2" fill="#0b3d2e"/>
<circle cx="424.1259842519685" cy="128" r="2" fill="#0b3d2e"/>
<circle cx="424.1259842519685" cy="144" r="2" fill="#0b3d2e"/>
<circle cx="424.1259842519685" cy="160" r="2" fill="#0b3d2e"/>
<circle cx="424.1259842519685" cy="176" r="2" fill="#0b3d2e"/>
<circle cx="424.1259842519685" cy="192" r="2" fill="#0b3d2e"/>
<circle cx="424.1259842519685" cy="208" r="2" fill="#0b3d2e"/>
<circle cx="424.1259842519685" cy="224" r="2" fill="#0b3d2e"/>
<circle cx="424.1259842519685" cy="240" r="2" fill="#0b3d2e"/>
<circle cx="424.1259842519685" cy="256" r="2" fill="#0b3d2e"/>
<circle cx="424.1259842519685" cy="272" r="2" fill="#0b3d2e"/>
<circle cx="424.1259842519685" cy="288" r="2" fill="#0b3d2e"/>
<circle cx="424.1259842519685" cy="304" r="2" fill="#0b3d2e"/>
<circle cx="424.1259842519685" cy="320" r="2" fill="#0b3d2e"/>
<circle cx="424.1259842519685" cy="336" r="2" fill="#0b3d2e"/>
<circle cx="424.1259842519685" cy="352" r="2" fill="#0b3d2e"/>
<circle cx="424.1259842519685" cy="368" r="2" fill="#0b3d2e"/>
<circle cx="424.1259842519685" cy="384" r="2" fill="#0b3d2e"/>
<circle cx="424.1259842519685" cy="400" r="2" fill="#0b3d2e"/>
<circle cx="424.1259842519685" cy="416" r="2" fill="#0b3d2e"/>
<circle cx="424.1259842519685" cy="432" r="2" fill="#0b3d2e"/>
<circle cx="424.1259842519685" cy="448" r="2" fill="#0b3d2e"/>
<circle cx="424.1259842519685" cy="464" r="2" fill="#0b3d2e"/>
<rect x="128.251968503937" y="72.06299212598425" width="255.748031496063" height="127.87401574803148" rx="3" fill="#3b82f6" opacity="0.9" stroke="#1e293b"/>
<text x="256.1259842519685" y="134" text-anchor="middle" font-size="11" font-weight="700" fill="#fff">U1</text>
<text x="256.1259842519685" y="146" text-anchor="middle" font-size="8" fill="rgba(255,255,255,0.9)">FITS 40x20</text>
<circle cx="136.1259842519685" cy="80" r="4.5" fill="#ef4444" stroke="#0b3d2e"/>
<text x="136.1259842519685" y="89" text-anchor="middle" font-size="5.5" fill="#f8fafc">VIN</text>
<circle cx="136.1259842519685" cy="192" r="4.5" fill="#111827" stroke="#0b3d2e"/>
<text x="136.1259842519685" y="201" text-anchor="middle" font-size="5.5" fill="#f8fafc">GND</text>
<circle cx="376.1259842519685" cy="80" r="4.5" fill="#f59e0b" stroke="#0b3d2e"/>
<text x="376.1259842519685" y="89" text-anchor="middle" font-size="5.5" fill="#f8fafc">VOUT</text>
<circle cx="376.1259842519685" cy="192" r="4.5" fill="#111827" stroke="#0b3d2e"/>
<text x="376.1259842519685" y="201" text-anchor="middle" font-size="5.5" fill="#f8fafc">GND2</text>
<circle cx="232.1259842519685" cy="192" r="4.5" fill="#22c55e" stroke="#0b3d2e"/>
<text x="232.1259842519685" y="201" text-anchor="middle" font-size="5.5" fill="#f8fafc">EN</text>
<circle cx="280.1259842519685" cy="192" r="4.5" fill="#f59e0b" stroke="#0b3d2e"/>
<text x="280.1259842519685" y="201" text-anchor="middle" font-size="5.5" fill="#f8fafc">PG</text>
<rect x="32" y="230.86614173228347" width="384.25196850393695" height="258.26771653543307" rx="3" fill="#ef4444" opacity="0.9" stroke="#1e293b"/>
<text x="224.12598425196848" y="358" text-anchor="middle" font-size="11" font-weight="700" fill="#fff">U2</text>
<text x="224.12598425196848" y="370" text-anchor="middle" font-size="8" fill="rgba(255,255,255,0.9)">XL4016 61x41</text>
<circle cx="136.1259842519685" cy="352" r="4.5" fill="#ef4444" stroke="#0b3d2e"/>
<text x="136.1259842519685" y="361" text-anchor="middle" font-size="5.5" fill="#f8fafc">IN+</text>
<circle cx="136.1259842519685" cy="368" r="4.5" fill="#111827" stroke="#0b3d2e"/>
<text x="136.1259842519685" y="377" text-anchor="middle" font-size="5.5" fill="#f8fafc">IN-</text>
<circle cx="312.1259842519685" cy="352" r="4.5" fill="#f59e0b" stroke="#0b3d2e"/>
<text x="312.1259842519685" y="361" text-anchor="middle" font-size="5.5" fill="#f8fafc">OUT+</text>
<circle cx="312.1259842519685" cy="368" r="4.5" fill="#111827" stroke="#0b3d2e"/>
<text x="312.1259842519685" y="377" text-anchor="middle" font-size="5.5" fill="#f8fafc">OUT-</text>
<text x="120.1259842519685" y="64" font-size="8.5" font-weight="600" fill="#b91c1c">Both on a real 50x70mm (20x26-hole) protoboard. Pololu D24V90F5 (40.6x20.3mm) drops in. The XL4016E1 cost-down buck (61x41x27mm) overflows the board AND its 27mm height exceeds the 26mm bay - see the overhang flag in Issues.</text>
<text x="112.1259842519685" y="16" font-size="13" font-weight="700" fill="#0f172a">Buck fit comparison (50x70mm board) — 20×26 holes ≈ 51×66mm</text>
</svg>