<svg xmlns="http://www.w3.org/2000/svg" width="384" height="496" viewBox="0 0 384 496" font-family="ui-sans-serif,system-ui,sans-serif">
<rect x="0" y="0" width="384" height="496" fill="#f8fafc"/>
<rect x="24" y="24" width="320" height="416" fill="#0e7a5f" stroke="#0b3d2e"/>
<circle cx="32" cy="32" r="2" fill="#0b3d2e"/>
<circle cx="32" cy="48" r="2" fill="#0b3d2e"/>
<circle cx="32" cy="64" r="2" fill="#0b3d2e"/>
<circle cx="32" cy="80" r="2" fill="#0b3d2e"/>
<circle cx="32" cy="96" r="2" fill="#0b3d2e"/>
<circle cx="32" cy="112" r="2" fill="#0b3d2e"/>
<circle cx="32" cy="128" r="2" fill="#0b3d2e"/>
<circle cx="32" cy="144" r="2" fill="#0b3d2e"/>
<circle cx="32" cy="160" r="2" fill="#0b3d2e"/>
<circle cx="32" cy="176" r="2" fill="#0b3d2e"/>
<circle cx="32" cy="192" r="2" fill="#0b3d2e"/>
<circle cx="32" cy="208" r="2" fill="#0b3d2e"/>
<circle cx="32" cy="224" r="2" fill="#0b3d2e"/>
<circle cx="32" cy="240" r="2" fill="#0b3d2e"/>
<circle cx="32" cy="256" r="2" fill="#0b3d2e"/>
<circle cx="32" cy="272" r="2" fill="#0b3d2e"/>
<circle cx="32" cy="288" r="2" fill="#0b3d2e"/>
<circle cx="32" cy="304" r="2" fill="#0b3d2e"/>
<circle cx="32" cy="320" r="2" fill="#0b3d2e"/>
<circle cx="32" cy="336" r="2" fill="#0b3d2e"/>
<circle cx="32" cy="352" r="2" fill="#0b3d2e"/>
<circle cx="32" cy="368" r="2" fill="#0b3d2e"/>
<circle cx="32" cy="384" r="2" fill="#0b3d2e"/>
<circle cx="32" cy="400" r="2" fill="#0b3d2e"/>
<circle cx="32" cy="416" r="2" fill="#0b3d2e"/>
<circle cx="32" cy="432" r="2" fill="#0b3d2e"/>
<circle cx="48" cy="32" r="2" fill="#0b3d2e"/>
<circle cx="48" cy="48" r="2" fill="#0b3d2e"/>
<circle cx="48" cy="64" r="2" fill="#0b3d2e"/>
<circle cx="48" cy="80" r="2" fill="#0b3d2e"/>
<circle cx="48" cy="96" r="2" fill="#0b3d2e"/>
<circle cx="48" cy="112" r="2" fill="#0b3d2e"/>
<circle cx="48" cy="128" r="2" fill="#0b3d2e"/>
<circle cx="48" cy="144" r="2" fill="#0b3d2e"/>
<circle cx="48" cy="160" r="2" fill="#0b3d2e"/>
<circle cx="48" cy="176" r="2" fill="#0b3d2e"/>
<circle cx="48" cy="192" r="2" fill="#0b3d2e"/>
<circle cx="48" cy="208" r="2" fill="#0b3d2e"/>
<circle cx="48" cy="224" r="2" fill="#0b3d2e"/>
<circle cx="48" cy="240" r="2" fill="#0b3d2e"/>
<circle cx="48" cy="256" r="2" fill="#0b3d2e"/>
<circle cx="48" cy="272" r="2" fill="#0b3d2e"/>
<circle cx="48" cy="288" r="2" fill="#0b3d2e"/>
<circle cx="48" cy="304" r="2" fill="#0b3d2e"/>
<circle cx="48" cy="320" r="2" fill="#0b3d2e"/>
<circle cx="48" cy="336" r="2" fill="#0b3d2e"/>
<circle cx="48" cy="352" r="2" fill="#0b3d2e"/>
<circle cx="48" cy="368" r="2" fill="#0b3d2e"/>
<circle cx="48" cy="384" r="2" fill="#0b3d2e"/>
<circle cx="48" cy="400" r="2" fill="#0b3d2e"/>
<circle cx="48" cy="416" r="2" fill="#0b3d2e"/>
<circle cx="48" cy="432" r="2" fill="#0b3d2e"/>
<circle cx="64" cy="32" r="2" fill="#0b3d2e"/>
<circle cx="64" cy="48" r="2" fill="#0b3d2e"/>
<circle cx="64" cy="64" r="2" fill="#0b3d2e"/>
<circle cx="64" cy="80" r="2" fill="#0b3d2e"/>
<circle cx="64" cy="96" r="2" fill="#0b3d2e"/>
<circle cx="64" cy="112" r="2" fill="#0b3d2e"/>
<circle cx="64" cy="128" r="2" fill="#0b3d2e"/>
<circle cx="64" cy="144" r="2" fill="#0b3d2e"/>
<circle cx="64" cy="160" r="2" fill="#0b3d2e"/>
<circle cx="64" cy="176" r="2" fill="#0b3d2e"/>
<circle cx="64" cy="192" r="2" fill="#0b3d2e"/>
<circle cx="64" cy="208" r="2" fill="#0b3d2e"/>
<circle cx="64" cy="224" r="2" fill="#0b3d2e"/>
<circle cx="64" cy="240" r="2" fill="#0b3d2e"/>
<circle cx="64" cy="256" r="2" fill="#0b3d2e"/>
<circle cx="64" cy="272" r="2" fill="#0b3d2e"/>
<circle cx="64" cy="288" r="2" fill="#0b3d2e"/>
<circle cx="64" cy="304" r="2" fill="#0b3d2e"/>
<circle cx="64" cy="320" r="2" fill="#0b3d2e"/>
<circle cx="64" cy="336" r="2" fill="#0b3d2e"/>
<circle cx="64" cy="352" r="2" fill="#0b3d2e"/>
<circle cx="64" cy="368" r="2" fill="#0b3d2e"/>
<circle cx="64" cy="384" r="2" fill="#0b3d2e"/>
<circle cx="64" cy="400" r="2" fill="#0b3d2e"/>
<circle cx="64" cy="416" r="2" fill="#0b3d2e"/>
<circle cx="64" cy="432" r="2" fill="#0b3d2e"/>
<circle cx="80" cy="32" r="2" fill="#0b3d2e"/>
<circle cx="80" cy="48" r="2" fill="#0b3d2e"/>
<circle cx="80" cy="64" r="2" fill="#0b3d2e"/>
<circle cx="80" cy="80" r="2" fill="#0b3d2e"/>
<circle cx="80" cy="96" r="2" fill="#0b3d2e"/>
<circle cx="80" cy="112" r="2" fill="#0b3d2e"/>
<circle cx="80" cy="128" r="2" fill="#0b3d2e"/>
<circle cx="80" cy="144" r="2" fill="#0b3d2e"/>
<circle cx="80" cy="160" r="2" fill="#0b3d2e"/>
<circle cx="80" cy="176" r="2" fill="#0b3d2e"/>
<circle cx="80" cy="192" r="2" fill="#0b3d2e"/>
<circle cx="80" cy="208" r="2" fill="#0b3d2e"/>
<circle cx="80" cy="224" r="2" fill="#0b3d2e"/>
<circle cx="80" cy="240" r="2" fill="#0b3d2e"/>
<circle cx="80" cy="256" r="2" fill="#0b3d2e"/>
<circle cx="80" cy="272" r="2" fill="#0b3d2e"/>
<circle cx="80" cy="288" r="2" fill="#0b3d2e"/>
<circle cx="80" cy="304" r="2" fill="#0b3d2e"/>
<circle cx="80" cy="320" r="2" fill="#0b3d2e"/>
<circle cx="80" cy="336" r="2" fill="#0b3d2e"/>
<circle cx="80" cy="352" r="2" fill="#0b3d2e"/>
<circle cx="80" cy="368" r="2" fill="#0b3d2e"/>
<circle cx="80" cy="384" r="2" fill="#0b3d2e"/>
<circle cx="80" cy="400" r="2" fill="#0b3d2e"/>
<circle cx="80" cy="416" r="2" fill="#0b3d2e"/>
<circle cx="80" cy="432" r="2" fill="#0b3d2e"/>
<circle cx="96" cy="32" r="2" fill="#0b3d2e"/>
<circle cx="96" cy="48" r="2" fill="#0b3d2e"/>
<circle cx="96" cy="64" r="2" fill="#0b3d2e"/>
<circle cx="96" cy="80" r="2" fill="#0b3d2e"/>
<circle cx="96" cy="96" r="2" fill="#0b3d2e"/>
<circle cx="96" cy="112" r="2" fill="#0b3d2e"/>
<circle cx="96" cy="128" r="2" fill="#0b3d2e"/>
<circle cx="96" cy="144" r="2" fill="#0b3d2e"/>
<circle cx="96" cy="160" r="2" fill="#0b3d2e"/>
<circle cx="96" cy="176" r="2" fill="#0b3d2e"/>
<circle cx="96" cy="192" r="2" fill="#0b3d2e"/>
<circle cx="96" cy="208" r="2" fill="#0b3d2e"/>
<circle cx="96" cy="224" r="2" fill="#0b3d2e"/>
<circle cx="96" cy="240" r="2" fill="#0b3d2e"/>
<circle cx="96" cy="256" r="2" fill="#0b3d2e"/>
<circle cx="96" cy="272" r="2" fill="#0b3d2e"/>
<circle cx="96" cy="288" r="2" fill="#0b3d2e"/>
<circle cx="96" cy="304" r="2" fill="#0b3d2e"/>
<circle cx="96" cy="320" r="2" fill="#0b3d2e"/>
<circle cx="96" cy="336" r="2" fill="#0b3d2e"/>
<circle cx="96" cy="352" r="2" fill="#0b3d2e"/>
<circle cx="96" cy="368" r="2" fill="#0b3d2e"/>
<circle cx="96" cy="384" r="2" fill="#0b3d2e"/>
<circle cx="96" cy="400" r="2" fill="#0b3d2e"/>
<circle cx="96" cy="416" r="2" fill="#0b3d2e"/>
<circle cx="96" cy="432" r="2" fill="#0b3d2e"/>
<circle cx="112" cy="32" r="2" fill="#0b3d2e"/>
<circle cx="112" cy="48" r="2" fill="#0b3d2e"/>
<circle cx="112" cy="64" r="2" fill="#0b3d2e"/>
<circle cx="112" cy="80" r="2" fill="#0b3d2e"/>
<circle cx="112" cy="96" r="2" fill="#0b3d2e"/>
<circle cx="112" cy="112" r="2" fill="#0b3d2e"/>
<circle cx="112" cy="128" r="2" fill="#0b3d2e"/>
<circle cx="112" cy="144" r="2" fill="#0b3d2e"/>
<circle cx="112" cy="160" r="2" fill="#0b3d2e"/>
<circle cx="112" cy="176" r="2" fill="#0b3d2e"/>
<circle cx="112" cy="192" r="2" fill="#0b3d2e"/>
<circle cx="112" cy="208" r="2" fill="#0b3d2e"/>
<circle cx="112" cy="224" r="2" fill="#0b3d2e"/>
<circle cx="112" cy="240" r="2" fill="#0b3d2e"/>
<circle cx="112" cy="256" r="2" fill="#0b3d2e"/>
<circle cx="112" cy="272" r="2" fill="#0b3d2e"/>
<circle cx="112" cy="288" r="2" fill="#0b3d2e"/>
<circle cx="112" cy="304" r="2" fill="#0b3d2e"/>
<circle cx="112" cy="320" r="2" fill="#0b3d2e"/>
<circle cx="112" cy="336" r="2" fill="#0b3d2e"/>
<circle cx="112" cy="352" r="2" fill="#0b3d2e"/>
<circle cx="112" cy="368" r="2" fill="#0b3d2e"/>
<circle cx="112" cy="384" r="2" fill="#0b3d2e"/>
<circle cx="112" cy="400" r="2" fill="#0b3d2e"/>
<circle cx="112" cy="416" r="2" fill="#0b3d2e"/>
<circle cx="112" cy="432" r="2" fill="#0b3d2e"/>
<circle cx="128" cy="32" r="2" fill="#0b3d2e"/>
<circle cx="128" cy="48" r="2" fill="#0b3d2e"/>
<circle cx="128" cy="64" r="2" fill="#0b3d2e"/>
<circle cx="128" cy="80" r="2" fill="#0b3d2e"/>
<circle cx="128" cy="96" r="2" fill="#0b3d2e"/>
<circle cx="128" cy="112" r="2" fill="#0b3d2e"/>
<circle cx="128" cy="128" r="2" fill="#0b3d2e"/>
<circle cx="128" cy="144" r="2" fill="#0b3d2e"/>
<circle cx="128" cy="160" r="2" fill="#0b3d2e"/>
<circle cx="128" cy="176" r="2" fill="#0b3d2e"/>
<circle cx="128" cy="192" r="2" fill="#0b3d2e"/>
<circle cx="128" cy="208" r="2" fill="#0b3d2e"/>
<circle cx="128" cy="224" r="2" fill="#0b3d2e"/>
<circle cx="128" cy="240" r="2" fill="#0b3d2e"/>
<circle cx="128" cy="256" r="2" fill="#0b3d2e"/>
<circle cx="128" cy="272" r="2" fill="#0b3d2e"/>
<circle cx="128" cy="288" r="2" fill="#0b3d2e"/>
<circle cx="128" cy="304" r="2" fill="#0b3d2e"/>
<circle cx="128" cy="320" r="2" fill="#0b3d2e"/>
<circle cx="128" cy="336" r="2" fill="#0b3d2e"/>
<circle cx="128" cy="352" r="2" fill="#0b3d2e"/>
<circle cx="128" cy="368" r="2" fill="#0b3d2e"/>
<circle cx="128" cy="384" r="2" fill="#0b3d2e"/>
<circle cx="128" cy="400" r="2" fill="#0b3d2e"/>
<circle cx="128" cy="416" r="2" fill="#0b3d2e"/>
<circle cx="128" cy="432" r="2" fill="#0b3d2e"/>
<circle cx="144" cy="32" r="2" fill="#0b3d2e"/>
<circle cx="144" cy="48" r="2" fill="#0b3d2e"/>
<circle cx="144" cy="64" r="2" fill="#0b3d2e"/>
<circle cx="144" cy="80" r="2" fill="#0b3d2e"/>
<circle cx="144" cy="96" r="2" fill="#0b3d2e"/>
<circle cx="144" cy="112" r="2" fill="#0b3d2e"/>
<circle cx="144" cy="128" r="2" fill="#0b3d2e"/>
<circle cx="144" cy="144" r="2" fill="#0b3d2e"/>
<circle cx="144" cy="160" r="2" fill="#0b3d2e"/>
<circle cx="144" cy="176" r="2" fill="#0b3d2e"/>
<circle cx="144" cy="192" r="2" fill="#0b3d2e"/>
<circle cx="144" cy="208" r="2" fill="#0b3d2e"/>
<circle cx="144" cy="224" r="2" fill="#0b3d2e"/>
<circle cx="144" cy="240" r="2" fill="#0b3d2e"/>
<circle cx="144" cy="256" r="2" fill="#0b3d2e"/>
<circle cx="144" cy="272" r="2" fill="#0b3d2e"/>
<circle cx="144" cy="288" r="2" fill="#0b3d2e"/>
<circle cx="144" cy="304" r="2" fill="#0b3d2e"/>
<circle cx="144" cy="320" r="2" fill="#0b3d2e"/>
<circle cx="144" cy="336" r="2" fill="#0b3d2e"/>
<circle cx="144" cy="352" r="2" fill="#0b3d2e"/>
<circle cx="144" cy="368" r="2" fill="#0b3d2e"/>
<circle cx="144" cy="384" r="2" fill="#0b3d2e"/>
<circle cx="144" cy="400" r="2" fill="#0b3d2e"/>
<circle cx="144" cy="416" r="2" fill="#0b3d2e"/>
<circle cx="144" cy="432" r="2" fill="#0b3d2e"/>
<circle cx="160" cy="32" r="2" fill="#0b3d2e"/>
<circle cx="160" cy="48" r="2" fill="#0b3d2e"/>
<circle cx="160" cy="64" r="2" fill="#0b3d2e"/>
<circle cx="160" cy="80" r="2" fill="#0b3d2e"/>
<circle cx="160" cy="96" r="2" fill="#0b3d2e"/>
<circle cx="160" cy="112" r="2" fill="#0b3d2e"/>
<circle cx="160" cy="128" r="2" fill="#0b3d2e"/>
<circle cx="160" cy="144" r="2" fill="#0b3d2e"/>
<circle cx="160" cy="160" r="2" fill="#0b3d2e"/>
<circle cx="160" cy="176" r="2" fill="#0b3d2e"/>
<circle cx="160" cy="192" r="2" fill="#0b3d2e"/>
<circle cx="160" cy="208" r="2" fill="#0b3d2e"/>
<circle cx="160" cy="224" r="2" fill="#0b3d2e"/>
<circle cx="160" cy="240" r="2" fill="#0b3d2e"/>
<circle cx="160" cy="256" r="2" fill="#0b3d2e"/>
<circle cx="160" cy="272" r="2" fill="#0b3d2e"/>
<circle cx="160" cy="288" r="2" fill="#0b3d2e"/>
<circle cx="160" cy="304" r="2" fill="#0b3d2e"/>
<circle cx="160" cy="320" r="2" fill="#0b3d2e"/>
<circle cx="160" cy="336" r="2" fill="#0b3d2e"/>
<circle cx="160" cy="352" r="2" fill="#0b3d2e"/>
<circle cx="160" cy="368" r="2" fill="#0b3d2e"/>
<circle cx="160" cy="384" r="2" fill="#0b3d2e"/>
<circle cx="160" cy="400" r="2" fill="#0b3d2e"/>
<circle cx="160" cy="416" r="2" fill="#0b3d2e"/>
<circle cx="160" cy="432" r="2" fill="#0b3d2e"/>
<circle cx="176" cy="32" r="2" fill="#0b3d2e"/>
<circle cx="176" cy="48" r="2" fill="#0b3d2e"/>
<circle cx="176" cy="64" r="2" fill="#0b3d2e"/>
<circle cx="176" cy="80" r="2" fill="#0b3d2e"/>
<circle cx="176" cy="96" r="2" fill="#0b3d2e"/>
<circle cx="176" cy="112" r="2" fill="#0b3d2e"/>
<circle cx="176" cy="128" r="2" fill="#0b3d2e"/>
<circle cx="176" cy="144" r="2" fill="#0b3d2e"/>
<circle cx="176" cy="160" r="2" fill="#0b3d2e"/>
<circle cx="176" cy="176" r="2" fill="#0b3d2e"/>
<circle cx="176" cy="192" r="2" fill="#0b3d2e"/>
<circle cx="176" cy="208" r="2" fill="#0b3d2e"/>
<circle cx="176" cy="224" r="2" fill="#0b3d2e"/>
<circle cx="176" cy="240" r="2" fill="#0b3d2e"/>
<circle cx="176" cy="256" r="2" fill="#0b3d2e"/>
<circle cx="176" cy="272" r="2" fill="#0b3d2e"/>
<circle cx="176" cy="288" r="2" fill="#0b3d2e"/>
<circle cx="176" cy="304" r="2" fill="#0b3d2e"/>
<circle cx="176" cy="320" r="2" fill="#0b3d2e"/>
<circle cx="176" cy="336" r="2" fill="#0b3d2e"/>
<circle cx="176" cy="352" r="2" fill="#0b3d2e"/>
<circle cx="176" cy="368" r="2" fill="#0b3d2e"/>
<circle cx="176" cy="384" r="2" fill="#0b3d2e"/>
<circle cx="176" cy="400" r="2" fill="#0b3d2e"/>
<circle cx="176" cy="416" r="2" fill="#0b3d2e"/>
<circle cx="176" cy="432" r="2" fill="#0b3d2e"/>
<circle cx="192" cy="32" r="2" fill="#0b3d2e"/>
<circle cx="192" cy="48" r="2" fill="#0b3d2e"/>
<circle cx="192" cy="64" r="2" fill="#0b3d2e"/>
<circle cx="192" cy="80" r="2" fill="#0b3d2e"/>
<circle cx="192" cy="96" r="2" fill="#0b3d2e"/>
<circle cx="192" cy="112" r="2" fill="#0b3d2e"/>
<circle cx="192" cy="128" r="2" fill="#0b3d2e"/>
<circle cx="192" cy="144" r="2" fill="#0b3d2e"/>
<circle cx="192" cy="160" r="2" fill="#0b3d2e"/>
<circle cx="192" cy="176" r="2" fill="#0b3d2e"/>
<circle cx="192" cy="192" r="2" fill="#0b3d2e"/>
<circle cx="192" cy="208" r="2" fill="#0b3d2e"/>
<circle cx="192" cy="224" r="2" fill="#0b3d2e"/>
<circle cx="192" cy="240" r="2" fill="#0b3d2e"/>
<circle cx="192" cy="256" r="2" fill="#0b3d2e"/>
<circle cx="192" cy="272" r="2" fill="#0b3d2e"/>
<circle cx="192" cy="288" r="2" fill="#0b3d2e"/>
<circle cx="192" cy="304" r="2" fill="#0b3d2e"/>
<circle cx="192" cy="320" r="2" fill="#0b3d2e"/>
<circle cx="192" cy="336" r="2" fill="#0b3d2e"/>
<circle cx="192" cy="352" r="2" fill="#0b3d2e"/>
<circle cx="192" cy="368" r="2" fill="#0b3d2e"/>
<circle cx="192" cy="384" r="2" fill="#0b3d2e"/>
<circle cx="192" cy="400" r="2" fill="#0b3d2e"/>
<circle cx="192" cy="416" r="2" fill="#0b3d2e"/>
<circle cx="192" cy="432" r="2" fill="#0b3d2e"/>
<circle cx="208" cy="32" r="2" fill="#0b3d2e"/>
<circle cx="208" cy="48" r="2" fill="#0b3d2e"/>
<circle cx="208" cy="64" r="2" fill="#0b3d2e"/>
<circle cx="208" cy="80" r="2" fill="#0b3d2e"/>
<circle cx="208" cy="96" r="2" fill="#0b3d2e"/>
<circle cx="208" cy="112" r="2" fill="#0b3d2e"/>
<circle cx="208" cy="128" r="2" fill="#0b3d2e"/>
<circle cx="208" cy="144" r="2" fill="#0b3d2e"/>
<circle cx="208" cy="160" r="2" fill="#0b3d2e"/>
<circle cx="208" cy="176" r="2" fill="#0b3d2e"/>
<circle cx="208" cy="192" r="2" fill="#0b3d2e"/>
<circle cx="208" cy="208" r="2" fill="#0b3d2e"/>
<circle cx="208" cy="224" r="2" fill="#0b3d2e"/>
<circle cx="208" cy="240" r="2" fill="#0b3d2e"/>
<circle cx="208" cy="256" r="2" fill="#0b3d2e"/>
<circle cx="208" cy="272" r="2" fill="#0b3d2e"/>
<circle cx="208" cy="288" r="2" fill="#0b3d2e"/>
<circle cx="208" cy="304" r="2" fill="#0b3d2e"/>
<circle cx="208" cy="320" r="2" fill="#0b3d2e"/>
<circle cx="208" cy="336" r="2" fill="#0b3d2e"/>
<circle cx="208" cy="352" r="2" fill="#0b3d2e"/>
<circle cx="208" cy="368" r="2" fill="#0b3d2e"/>
<circle cx="208" cy="384" r="2" fill="#0b3d2e"/>
<circle cx="208" cy="400" r="2" fill="#0b3d2e"/>
<circle cx="208" cy="416" r="2" fill="#0b3d2e"/>
<circle cx="208" cy="432" r="2" fill="#0b3d2e"/>
<circle cx="224" cy="32" r="2" fill="#0b3d2e"/>
<circle cx="224" cy="48" r="2" fill="#0b3d2e"/>
<circle cx="224" cy="64" r="2" fill="#0b3d2e"/>
<circle cx="224" cy="80" r="2" fill="#0b3d2e"/>
<circle cx="224" cy="96" r="2" fill="#0b3d2e"/>
<circle cx="224" cy="112" r="2" fill="#0b3d2e"/>
<circle cx="224" cy="128" r="2" fill="#0b3d2e"/>
<circle cx="224" cy="144" r="2" fill="#0b3d2e"/>
<circle cx="224" cy="160" r="2" fill="#0b3d2e"/>
<circle cx="224" cy="176" r="2" fill="#0b3d2e"/>
<circle cx="224" cy="192" r="2" fill="#0b3d2e"/>
<circle cx="224" cy="208" r="2" fill="#0b3d2e"/>
<circle cx="224" cy="224" r="2" fill="#0b3d2e"/>
<circle cx="224" cy="240" r="2" fill="#0b3d2e"/>
<circle cx="224" cy="256" r="2" fill="#0b3d2e"/>
<circle cx="224" cy="272" r="2" fill="#0b3d2e"/>
<circle cx="224" cy="288" r="2" fill="#0b3d2e"/>
<circle cx="224" cy="304" r="2" fill="#0b3d2e"/>
<circle cx="224" cy="320" r="2" fill="#0b3d2e"/>
<circle cx="224" cy="336" r="2" fill="#0b3d2e"/>
<circle cx="224" cy="352" r="2" fill="#0b3d2e"/>
<circle cx="224" cy="368" r="2" fill="#0b3d2e"/>
<circle cx="224" cy="384" r="2" fill="#0b3d2e"/>
<circle cx="224" cy="400" r="2" fill="#0b3d2e"/>
<circle cx="224" cy="416" r="2" fill="#0b3d2e"/>
<circle cx="224" cy="432" r="2" fill="#0b3d2e"/>
<circle cx="240" cy="32" r="2" fill="#0b3d2e"/>
<circle cx="240" cy="48" r="2" fill="#0b3d2e"/>
<circle cx="240" cy="64" r="2" fill="#0b3d2e"/>
<circle cx="240" cy="80" r="2" fill="#0b3d2e"/>
<circle cx="240" cy="96" r="2" fill="#0b3d2e"/>
<circle cx="240" cy="112" r="2" fill="#0b3d2e"/>
<circle cx="240" cy="128" r="2" fill="#0b3d2e"/>
<circle cx="240" cy="144" r="2" fill="#0b3d2e"/>
<circle cx="240" cy="160" r="2" fill="#0b3d2e"/>
<circle cx="240" cy="176" r="2" fill="#0b3d2e"/>
<circle cx="240" cy="192" r="2" fill="#0b3d2e"/>
<circle cx="240" cy="208" r="2" fill="#0b3d2e"/>
<circle cx="240" cy="224" r="2" fill="#0b3d2e"/>
<circle cx="240" cy="240" r="2" fill="#0b3d2e"/>
<circle cx="240" cy="256" r="2" fill="#0b3d2e"/>
<circle cx="240" cy="272" r="2" fill="#0b3d2e"/>
<circle cx="240" cy="288" r="2" fill="#0b3d2e"/>
<circle cx="240" cy="304" r="2" fill="#0b3d2e"/>
<circle cx="240" cy="320" r="2" fill="#0b3d2e"/>
<circle cx="240" cy="336" r="2" fill="#0b3d2e"/>
<circle cx="240" cy="352" r="2" fill="#0b3d2e"/>
<circle cx="240" cy="368" r="2" fill="#0b3d2e"/>
<circle cx="240" cy="384" r="2" fill="#0b3d2e"/>
<circle cx="240" cy="400" r="2" fill="#0b3d2e"/>
<circle cx="240" cy="416" r="2" fill="#0b3d2e"/>
<circle cx="240" cy="432" r="2" fill="#0b3d2e"/>
<circle cx="256" cy="32" r="2" fill="#0b3d2e"/>
<circle cx="256" cy="48" r="2" fill="#0b3d2e"/>
<circle cx="256" cy="64" r="2" fill="#0b3d2e"/>
<circle cx="256" cy="80" r="2" fill="#0b3d2e"/>
<circle cx="256" cy="96" r="2" fill="#0b3d2e"/>
<circle cx="256" cy="112" r="2" fill="#0b3d2e"/>
<circle cx="256" cy="128" r="2" fill="#0b3d2e"/>
<circle cx="256" cy="144" r="2" fill="#0b3d2e"/>
<circle cx="256" cy="160" r="2" fill="#0b3d2e"/>
<circle cx="256" cy="176" r="2" fill="#0b3d2e"/>
<circle cx="256" cy="192" r="2" fill="#0b3d2e"/>
<circle cx="256" cy="208" r="2" fill="#0b3d2e"/>
<circle cx="256" cy="224" r="2" fill="#0b3d2e"/>
<circle cx="256" cy="240" r="2" fill="#0b3d2e"/>
<circle cx="256" cy="256" r="2" fill="#0b3d2e"/>
<circle cx="256" cy="272" r="2" fill="#0b3d2e"/>
<circle cx="256" cy="288" r="2" fill="#0b3d2e"/>
<circle cx="256" cy="304" r="2" fill="#0b3d2e"/>
<circle cx="256" cy="320" r="2" fill="#0b3d2e"/>
<circle cx="256" cy="336" r="2" fill="#0b3d2e"/>
<circle cx="256" cy="352" r="2" fill="#0b3d2e"/>
<circle cx="256" cy="368" r="2" fill="#0b3d2e"/>
<circle cx="256" cy="384" r="2" fill="#0b3d2e"/>
<circle cx="256" cy="400" r="2" fill="#0b3d2e"/>
<circle cx="256" cy="416" r="2" fill="#0b3d2e"/>
<circle cx="256" cy="432" r="2" fill="#0b3d2e"/>
<circle cx="272" cy="32" r="2" fill="#0b3d2e"/>
<circle cx="272" cy="48" r="2" fill="#0b3d2e"/>
<circle cx="272" cy="64" r="2" fill="#0b3d2e"/>
<circle cx="272" cy="80" r="2" fill="#0b3d2e"/>
<circle cx="272" cy="96" r="2" fill="#0b3d2e"/>
<circle cx="272" cy="112" r="2" fill="#0b3d2e"/>
<circle cx="272" cy="128" r="2" fill="#0b3d2e"/>
<circle cx="272" cy="144" r="2" fill="#0b3d2e"/>
<circle cx="272" cy="160" r="2" fill="#0b3d2e"/>
<circle cx="272" cy="176" r="2" fill="#0b3d2e"/>
<circle cx="272" cy="192" r="2" fill="#0b3d2e"/>
<circle cx="272" cy="208" r="2" fill="#0b3d2e"/>
<circle cx="272" cy="224" r="2" fill="#0b3d2e"/>
<circle cx="272" cy="240" r="2" fill="#0b3d2e"/>
<circle cx="272" cy="256" r="2" fill="#0b3d2e"/>
<circle cx="272" cy="272" r="2" fill="#0b3d2e"/>
<circle cx="272" cy="288" r="2" fill="#0b3d2e"/>
<circle cx="272" cy="304" r="2" fill="#0b3d2e"/>
<circle cx="272" cy="320" r="2" fill="#0b3d2e"/>
<circle cx="272" cy="336" r="2" fill="#0b3d2e"/>
<circle cx="272" cy="352" r="2" fill="#0b3d2e"/>
<circle cx="272" cy="368" r="2" fill="#0b3d2e"/>
<circle cx="272" cy="384" r="2" fill="#0b3d2e"/>
<circle cx="272" cy="400" r="2" fill="#0b3d2e"/>
<circle cx="272" cy="416" r="2" fill="#0b3d2e"/>
<circle cx="272" cy="432" r="2" fill="#0b3d2e"/>
<circle cx="288" cy="32" r="2" fill="#0b3d2e"/>
<circle cx="288" cy="48" r="2" fill="#0b3d2e"/>
<circle cx="288" cy="64" r="2" fill="#0b3d2e"/>
<circle cx="288" cy="80" r="2" fill="#0b3d2e"/>
<circle cx="288" cy="96" r="2" fill="#0b3d2e"/>
<circle cx="288" cy="112" r="2" fill="#0b3d2e"/>
<circle cx="288" cy="128" r="2" fill="#0b3d2e"/>
<circle cx="288" cy="144" r="2" fill="#0b3d2e"/>
<circle cx="288" cy="160" r="2" fill="#0b3d2e"/>
<circle cx="288" cy="176" r="2" fill="#0b3d2e"/>
<circle cx="288" cy="192" r="2" fill="#0b3d2e"/>
<circle cx="288" cy="208" r="2" fill="#0b3d2e"/>
<circle cx="288" cy="224" r="2" fill="#0b3d2e"/>
<circle cx="288" cy="240" r="2" fill="#0b3d2e"/>
<circle cx="288" cy="256" r="2" fill="#0b3d2e"/>
<circle cx="288" cy="272" r="2" fill="#0b3d2e"/>
<circle cx="288" cy="288" r="2" fill="#0b3d2e"/>
<circle cx="288" cy="304" r="2" fill="#0b3d2e"/>
<circle cx="288" cy="320" r="2" fill="#0b3d2e"/>
<circle cx="288" cy="336" r="2" fill="#0b3d2e"/>
<circle cx="288" cy="352" r="2" fill="#0b3d2e"/>
<circle cx="288" cy="368" r="2" fill="#0b3d2e"/>
<circle cx="288" cy="384" r="2" fill="#0b3d2e"/>
<circle cx="288" cy="400" r="2" fill="#0b3d2e"/>
<circle cx="288" cy="416" r="2" fill="#0b3d2e"/>
<circle cx="288" cy="432" r="2" fill="#0b3d2e"/>
<circle cx="304" cy="32" r="2" fill="#0b3d2e"/>
<circle cx="304" cy="48" r="2" fill="#0b3d2e"/>
<circle cx="304" cy="64" r="2" fill="#0b3d2e"/>
<circle cx="304" cy="80" r="2" fill="#0b3d2e"/>
<circle cx="304" cy="96" r="2" fill="#0b3d2e"/>
<circle cx="304" cy="112" r="2" fill="#0b3d2e"/>
<circle cx="304" cy="128" r="2" fill="#0b3d2e"/>
<circle cx="304" cy="144" r="2" fill="#0b3d2e"/>
<circle cx="304" cy="160" r="2" fill="#0b3d2e"/>
<circle cx="304" cy="176" r="2" fill="#0b3d2e"/>
<circle cx="304" cy="192" r="2" fill="#0b3d2e"/>
<circle cx="304" cy="208" r="2" fill="#0b3d2e"/>
<circle cx="304" cy="224" r="2" fill="#0b3d2e"/>
<circle cx="304" cy="240" r="2" fill="#0b3d2e"/>
<circle cx="304" cy="256" r="2" fill="#0b3d2e"/>
<circle cx="304" cy="272" r="2" fill="#0b3d2e"/>
<circle cx="304" cy="288" r="2" fill="#0b3d2e"/>
<circle cx="304" cy="304" r="2" fill="#0b3d2e"/>
<circle cx="304" cy="320" r="2" fill="#0b3d2e"/>
<circle cx="304" cy="336" r="2" fill="#0b3d2e"/>
<circle cx="304" cy="352" r="2" fill="#0b3d2e"/>
<circle cx="304" cy="368" r="2" fill="#0b3d2e"/>
<circle cx="304" cy="384" r="2" fill="#0b3d2e"/>
<circle cx="304" cy="400" r="2" fill="#0b3d2e"/>
<circle cx="304" cy="416" r="2" fill="#0b3d2e"/>
<circle cx="304" cy="432" r="2" fill="#0b3d2e"/>
<circle cx="320" cy="32" r="2" fill="#0b3d2e"/>
<circle cx="320" cy="48" r="2" fill="#0b3d2e"/>
<circle cx="320" cy="64" r="2" fill="#0b3d2e"/>
<circle cx="320" cy="80" r="2" fill="#0b3d2e"/>
<circle cx="320" cy="96" r="2" fill="#0b3d2e"/>
<circle cx="320" cy="112" r="2" fill="#0b3d2e"/>
<circle cx="320" cy="128" r="2" fill="#0b3d2e"/>
<circle cx="320" cy="144" r="2" fill="#0b3d2e"/>
<circle cx="320" cy="160" r="2" fill="#0b3d2e"/>
<circle cx="320" cy="176" r="2" fill="#0b3d2e"/>
<circle cx="320" cy="192" r="2" fill="#0b3d2e"/>
<circle cx="320" cy="208" r="2" fill="#0b3d2e"/>
<circle cx="320" cy="224" r="2" fill="#0b3d2e"/>
<circle cx="320" cy="240" r="2" fill="#0b3d2e"/>
<circle cx="320" cy="256" r="2" fill="#0b3d2e"/>
<circle cx="320" cy="272" r="2" fill="#0b3d2e"/>
<circle cx="320" cy="288" r="2" fill="#0b3d2e"/>
<circle cx="320" cy="304" r="2" fill="#0b3d2e"/>
<circle cx="320" cy="320" r="2" fill="#0b3d2e"/>
<circle cx="320" cy="336" r="2" fill="#0b3d2e"/>
<circle cx="320" cy="352" r="2" fill="#0b3d2e"/>
<circle cx="320" cy="368" r="2" fill="#0b3d2e"/>
<circle cx="320" cy="384" r="2" fill="#0b3d2e"/>
<circle cx="320" cy="400" r="2" fill="#0b3d2e"/>
<circle cx="320" cy="416" r="2" fill="#0b3d2e"/>
<circle cx="320" cy="432" r="2" fill="#0b3d2e"/>
<circle cx="336" cy="32" r="2" fill="#0b3d2e"/>
<circle cx="336" cy="48" r="2" fill="#0b3d2e"/>
<circle cx="336" cy="64" r="2" fill="#0b3d2e"/>
<circle cx="336" cy="80" r="2" fill="#0b3d2e"/>
<circle cx="336" cy="96" r="2" fill="#0b3d2e"/>
<circle cx="336" cy="112" r="2" fill="#0b3d2e"/>
<circle cx="336" cy="128" r="2" fill="#0b3d2e"/>
<circle cx="336" cy="144" r="2" fill="#0b3d2e"/>
<circle cx="336" cy="160" r="2" fill="#0b3d2e"/>
<circle cx="336" cy="176" r="2" fill="#0b3d2e"/>
<circle cx="336" cy="192" r="2" fill="#0b3d2e"/>
<circle cx="336" cy="208" r="2" fill="#0b3d2e"/>
<circle cx="336" cy="224" r="2" fill="#0b3d2e"/>
<circle cx="336" cy="240" r="2" fill="#0b3d2e"/>
<circle cx="336" cy="256" r="2" fill="#0b3d2e"/>
<circle cx="336" cy="272" r="2" fill="#0b3d2e"/>
<circle cx="336" cy="288" r="2" fill="#0b3d2e"/>
<circle cx="336" cy="304" r="2" fill="#0b3d2e"/>
<circle cx="336" cy="320" r="2" fill="#0b3d2e"/>
<circle cx="336" cy="336" r="2" fill="#0b3d2e"/>
<circle cx="336" cy="352" r="2" fill="#0b3d2e"/>
<circle cx="336" cy="368" r="2" fill="#0b3d2e"/>
<circle cx="336" cy="384" r="2" fill="#0b3d2e"/>
<circle cx="336" cy="400" r="2" fill="#0b3d2e"/>
<circle cx="336" cy="416" r="2" fill="#0b3d2e"/>
<circle cx="336" cy="432" r="2" fill="#0b3d2e"/>
<rect x="40.125984251968504" y="40.06299212598425" width="255.748031496063" height="127.87401574803148" rx="3" fill="#3b82f6" opacity="0.9" stroke="#1e293b"/>
<text x="168" y="102" text-anchor="middle" font-size="11" font-weight="700" fill="#fff">U1</text>
<text x="168" y="114" text-anchor="middle" font-size="8" fill="rgba(255,255,255,0.9)">FITS 40x20</text>
<circle cx="48" cy="48" r="4.5" fill="#ef4444" stroke="#0b3d2e"/>
<text x="48" y="57" text-anchor="middle" font-size="5.5" fill="#f8fafc">VIN</text>
<circle cx="48" cy="160" r="4.5" fill="#111827" stroke="#0b3d2e"/>
<text x="48" y="169" text-anchor="middle" font-size="5.5" fill="#f8fafc">GND</text>
<circle cx="288" cy="48" r="4.5" fill="#f59e0b" stroke="#0b3d2e"/>
<text x="288" y="57" text-anchor="middle" font-size="5.5" fill="#f8fafc">VOUT</text>
<circle cx="288" cy="160" r="4.5" fill="#111827" stroke="#0b3d2e"/>
<text x="288" y="169" text-anchor="middle" font-size="5.5" fill="#f8fafc">GND2</text>
<circle cx="144" cy="160" r="4.5" fill="#22c55e" stroke="#0b3d2e"/>
<text x="144" y="169" text-anchor="middle" font-size="5.5" fill="#f8fafc">EN</text>
<circle cx="192" cy="160" r="4.5" fill="#f59e0b" stroke="#0b3d2e"/>
<text x="192" y="169" text-anchor="middle" font-size="5.5" fill="#f8fafc">PG</text>
<rect x="-56.125984251968504" y="198.86614173228347" width="384.25196850393695" height="258.26771653543307" rx="3" fill="#ef4444" opacity="0.9" stroke="#1e293b"/>
<text x="135.99999999999997" y="326" text-anchor="middle" font-size="11" font-weight="700" fill="#fff">U2</text>
<text x="135.99999999999997" y="338" text-anchor="middle" font-size="8" fill="rgba(255,255,255,0.9)">XL4016 61x41</text>
<circle cx="48" cy="320" r="4.5" fill="#ef4444" stroke="#0b3d2e"/>
<text x="48" y="329" text-anchor="middle" font-size="5.5" fill="#f8fafc">IN+</text>
<circle cx="48" cy="336" r="4.5" fill="#111827" stroke="#0b3d2e"/>
<text x="48" y="345" text-anchor="middle" font-size="5.5" fill="#f8fafc">IN-</text>
<circle cx="224" cy="320" r="4.5" fill="#f59e0b" stroke="#0b3d2e"/>
<text x="224" y="329" text-anchor="middle" font-size="5.5" fill="#f8fafc">OUT+</text>
<circle cx="224" cy="336" r="4.5" fill="#111827" stroke="#0b3d2e"/>
<text x="224" y="345" text-anchor="middle" font-size="5.5" fill="#f8fafc">OUT-</text>
<text x="32" y="32" font-size="8.5" font-weight="600" fill="#b91c1c">Both on a real 50x70mm (20x26-hole) protoboard. Pololu D24V90F5 (40.6x20.3mm) drops in. The XL4016E1 cost-down buck (61x41x27mm) overflows the board AND its 27mm height exceeds the 26mm bay - see the overhang flag in Issues.</text>
<text x="24" y="16" font-size="13" font-weight="700" fill="#0f172a">Buck fit comparison (50x70mm board) — 20×26 holes ≈ 51×66mm</text>
</svg>