<svg xmlns="http://www.w3.org/2000/svg" width="480" height="560" viewBox="0 0 480 560" font-family="ui-sans-serif,system-ui,sans-serif">
<rect x="0" y="0" width="480" height="560" fill="#f8fafc"/>
<rect x="24" y="24" width="416" height="480" fill="#0e7a5f" stroke="#0b3d2e"/>
<circle cx="32" cy="32" r="2" fill="#0b3d2e"/>
<circle cx="32" cy="48" r="2" fill="#0b3d2e"/>
<circle cx="32" cy="64" r="2" fill="#0b3d2e"/>
<circle cx="32" cy="80" r="2" fill="#0b3d2e"/>
<circle cx="32" cy="96" r="2" fill="#0b3d2e"/>
<circle cx="32" cy="112" r="2" fill="#0b3d2e"/>
<circle cx="32" cy="128" r="2" fill="#0b3d2e"/>
<circle cx="32" cy="144" r="2" fill="#0b3d2e"/>
<circle cx="32" cy="160" r="2" fill="#0b3d2e"/>
<circle cx="32" cy="176" r="2" fill="#0b3d2e"/>
<circle cx="32" cy="192" r="2" fill="#0b3d2e"/>
<circle cx="32" cy="208" r="2" fill="#0b3d2e"/>
<circle cx="32" cy="224" r="2" fill="#0b3d2e"/>
<circle cx="32" cy="240" r="2" fill="#0b3d2e"/>
<circle cx="32" cy="256" r="2" fill="#0b3d2e"/>
<circle cx="32" cy="272" r="2" fill="#0b3d2e"/>
<circle cx="32" cy="288" r="2" fill="#0b3d2e"/>
<circle cx="32" cy="304" r="2" fill="#0b3d2e"/>
<circle cx="32" cy="320" r="2" fill="#0b3d2e"/>
<circle cx="32" cy="336" r="2" fill="#0b3d2e"/>
<circle cx="32" cy="352" r="2" fill="#0b3d2e"/>
<circle cx="32" cy="368" r="2" fill="#0b3d2e"/>
<circle cx="32" cy="384" r="2" fill="#0b3d2e"/>
<circle cx="32" cy="400" r="2" fill="#0b3d2e"/>
<circle cx="32" cy="416" r="2" fill="#0b3d2e"/>
<circle cx="32" cy="432" r="2" fill="#0b3d2e"/>
<circle cx="32" cy="448" r="2" fill="#0b3d2e"/>
<circle cx="32" cy="464" r="2" fill="#0b3d2e"/>
<circle cx="32" cy="480" r="2" fill="#0b3d2e"/>
<circle cx="32" cy="496" r="2" fill="#0b3d2e"/>
<circle cx="48" cy="32" r="2" fill="#0b3d2e"/>
<circle cx="48" cy="48" r="2" fill="#0b3d2e"/>
<circle cx="48" cy="64" r="2" fill="#0b3d2e"/>
<circle cx="48" cy="80" r="2" fill="#0b3d2e"/>
<circle cx="48" cy="96" r="2" fill="#0b3d2e"/>
<circle cx="48" cy="112" r="2" fill="#0b3d2e"/>
<circle cx="48" cy="128" r="2" fill="#0b3d2e"/>
<circle cx="48" cy="144" r="2" fill="#0b3d2e"/>
<circle cx="48" cy="160" r="2" fill="#0b3d2e"/>
<circle cx="48" cy="176" r="2" fill="#0b3d2e"/>
<circle cx="48" cy="192" r="2" fill="#0b3d2e"/>
<circle cx="48" cy="208" r="2" fill="#0b3d2e"/>
<circle cx="48" cy="224" r="2" fill="#0b3d2e"/>
<circle cx="48" cy="240" r="2" fill="#0b3d2e"/>
<circle cx="48" cy="256" r="2" fill="#0b3d2e"/>
<circle cx="48" cy="272" r="2" fill="#0b3d2e"/>
<circle cx="48" cy="288" r="2" fill="#0b3d2e"/>
<circle cx="48" cy="304" r="2" fill="#0b3d2e"/>
<circle cx="48" cy="320" r="2" fill="#0b3d2e"/>
<circle cx="48" cy="336" r="2" fill="#0b3d2e"/>
<circle cx="48" cy="352" r="2" fill="#0b3d2e"/>
<circle cx="48" cy="368" r="2" fill="#0b3d2e"/>
<circle cx="48" cy="384" r="2" fill="#0b3d2e"/>
<circle cx="48" cy="400" r="2" fill="#0b3d2e"/>
<circle cx="48" cy="416" r="2" fill="#0b3d2e"/>
<circle cx="48" cy="432" r="2" fill="#0b3d2e"/>
<circle cx="48" cy="448" r="2" fill="#0b3d2e"/>
<circle cx="48" cy="464" r="2" fill="#0b3d2e"/>
<circle cx="48" cy="480" r="2" fill="#0b3d2e"/>
<circle cx="48" cy="496" r="2" fill="#0b3d2e"/>
<circle cx="64" cy="32" r="2" fill="#0b3d2e"/>
<circle cx="64" cy="48" r="2" fill="#0b3d2e"/>
<circle cx="64" cy="64" r="2" fill="#0b3d2e"/>
<circle cx="64" cy="80" r="2" fill="#0b3d2e"/>
<circle cx="64" cy="96" r="2" fill="#0b3d2e"/>
<circle cx="64" cy="112" r="2" fill="#0b3d2e"/>
<circle cx="64" cy="128" r="2" fill="#0b3d2e"/>
<circle cx="64" cy="144" r="2" fill="#0b3d2e"/>
<circle cx="64" cy="160" r="2" fill="#0b3d2e"/>
<circle cx="64" cy="176" r="2" fill="#0b3d2e"/>
<circle cx="64" cy="192" r="2" fill="#0b3d2e"/>
<circle cx="64" cy="208" r="2" fill="#0b3d2e"/>
<circle cx="64" cy="224" r="2" fill="#0b3d2e"/>
<circle cx="64" cy="240" r="2" fill="#0b3d2e"/>
<circle cx="64" cy="256" r="2" fill="#0b3d2e"/>
<circle cx="64" cy="272" r="2" fill="#0b3d2e"/>
<circle cx="64" cy="288" r="2" fill="#0b3d2e"/>
<circle cx="64" cy="304" r="2" fill="#0b3d2e"/>
<circle cx="64" cy="320" r="2" fill="#0b3d2e"/>
<circle cx="64" cy="336" r="2" fill="#0b3d2e"/>
<circle cx="64" cy="352" r="2" fill="#0b3d2e"/>
<circle cx="64" cy="368" r="2" fill="#0b3d2e"/>
<circle cx="64" cy="384" r="2" fill="#0b3d2e"/>
<circle cx="64" cy="400" r="2" fill="#0b3d2e"/>
<circle cx="64" cy="416" r="2" fill="#0b3d2e"/>
<circle cx="64" cy="432" r="2" fill="#0b3d2e"/>
<circle cx="64" cy="448" r="2" fill="#0b3d2e"/>
<circle cx="64" cy="464" r="2" fill="#0b3d2e"/>
<circle cx="64" cy="480" r="2" fill="#0b3d2e"/>
<circle cx="64" cy="496" r="2" fill="#0b3d2e"/>
<circle cx="80" cy="32" r="2" fill="#0b3d2e"/>
<circle cx="80" cy="48" r="2" fill="#0b3d2e"/>
<circle cx="80" cy="64" r="2" fill="#0b3d2e"/>
<circle cx="80" cy="80" r="2" fill="#0b3d2e"/>
<circle cx="80" cy="96" r="2" fill="#0b3d2e"/>
<circle cx="80" cy="112" r="2" fill="#0b3d2e"/>
<circle cx="80" cy="128" r="2" fill="#0b3d2e"/>
<circle cx="80" cy="144" r="2" fill="#0b3d2e"/>
<circle cx="80" cy="160" r="2" fill="#0b3d2e"/>
<circle cx="80" cy="176" r="2" fill="#0b3d2e"/>
<circle cx="80" cy="192" r="2" fill="#0b3d2e"/>
<circle cx="80" cy="208" r="2" fill="#0b3d2e"/>
<circle cx="80" cy="224" r="2" fill="#0b3d2e"/>
<circle cx="80" cy="240" r="2" fill="#0b3d2e"/>
<circle cx="80" cy="256" r="2" fill="#0b3d2e"/>
<circle cx="80" cy="272" r="2" fill="#0b3d2e"/>
<circle cx="80" cy="288" r="2" fill="#0b3d2e"/>
<circle cx="80" cy="304" r="2" fill="#0b3d2e"/>
<circle cx="80" cy="320" r="2" fill="#0b3d2e"/>
<circle cx="80" cy="336" r="2" fill="#0b3d2e"/>
<circle cx="80" cy="352" r="2" fill="#0b3d2e"/>
<circle cx="80" cy="368" r="2" fill="#0b3d2e"/>
<circle cx="80" cy="384" r="2" fill="#0b3d2e"/>
<circle cx="80" cy="400" r="2" fill="#0b3d2e"/>
<circle cx="80" cy="416" r="2" fill="#0b3d2e"/>
<circle cx="80" cy="432" r="2" fill="#0b3d2e"/>
<circle cx="80" cy="448" r="2" fill="#0b3d2e"/>
<circle cx="80" cy="464" r="2" fill="#0b3d2e"/>
<circle cx="80" cy="480" r="2" fill="#0b3d2e"/>
<circle cx="80" cy="496" r="2" fill="#0b3d2e"/>
<circle cx="96" cy="32" r="2" fill="#0b3d2e"/>
<circle cx="96" cy="48" r="2" fill="#0b3d2e"/>
<circle cx="96" cy="64" r="2" fill="#0b3d2e"/>
<circle cx="96" cy="80" r="2" fill="#0b3d2e"/>
<circle cx="96" cy="96" r="2" fill="#0b3d2e"/>
<circle cx="96" cy="112" r="2" fill="#0b3d2e"/>
<circle cx="96" cy="128" r="2" fill="#0b3d2e"/>
<circle cx="96" cy="144" r="2" fill="#0b3d2e"/>
<circle cx="96" cy="160" r="2" fill="#0b3d2e"/>
<circle cx="96" cy="176" r="2" fill="#0b3d2e"/>
<circle cx="96" cy="192" r="2" fill="#0b3d2e"/>
<circle cx="96" cy="208" r="2" fill="#0b3d2e"/>
<circle cx="96" cy="224" r="2" fill="#0b3d2e"/>
<circle cx="96" cy="240" r="2" fill="#0b3d2e"/>
<circle cx="96" cy="256" r="2" fill="#0b3d2e"/>
<circle cx="96" cy="272" r="2" fill="#0b3d2e"/>
<circle cx="96" cy="288" r="2" fill="#0b3d2e"/>
<circle cx="96" cy="304" r="2" fill="#0b3d2e"/>
<circle cx="96" cy="320" r="2" fill="#0b3d2e"/>
<circle cx="96" cy="336" r="2" fill="#0b3d2e"/>
<circle cx="96" cy="352" r="2" fill="#0b3d2e"/>
<circle cx="96" cy="368" r="2" fill="#0b3d2e"/>
<circle cx="96" cy="384" r="2" fill="#0b3d2e"/>
<circle cx="96" cy="400" r="2" fill="#0b3d2e"/>
<circle cx="96" cy="416" r="2" fill="#0b3d2e"/>
<circle cx="96" cy="432" r="2" fill="#0b3d2e"/>
<circle cx="96" cy="448" r="2" fill="#0b3d2e"/>
<circle cx="96" cy="464" r="2" fill="#0b3d2e"/>
<circle cx="96" cy="480" r="2" fill="#0b3d2e"/>
<circle cx="96" cy="496" r="2" fill="#0b3d2e"/>
<circle cx="112" cy="32" r="2" fill="#0b3d2e"/>
<circle cx="112" cy="48" r="2" fill="#0b3d2e"/>
<circle cx="112" cy="64" r="2" fill="#0b3d2e"/>
<circle cx="112" cy="80" r="2" fill="#0b3d2e"/>
<circle cx="112" cy="96" r="2" fill="#0b3d2e"/>
<circle cx="112" cy="112" r="2" fill="#0b3d2e"/>
<circle cx="112" cy="128" r="2" fill="#0b3d2e"/>
<circle cx="112" cy="144" r="2" fill="#0b3d2e"/>
<circle cx="112" cy="160" r="2" fill="#0b3d2e"/>
<circle cx="112" cy="176" r="2" fill="#0b3d2e"/>
<circle cx="112" cy="192" r="2" fill="#0b3d2e"/>
<circle cx="112" cy="208" r="2" fill="#0b3d2e"/>
<circle cx="112" cy="224" r="2" fill="#0b3d2e"/>
<circle cx="112" cy="240" r="2" fill="#0b3d2e"/>
<circle cx="112" cy="256" r="2" fill="#0b3d2e"/>
<circle cx="112" cy="272" r="2" fill="#0b3d2e"/>
<circle cx="112" cy="288" r="2" fill="#0b3d2e"/>
<circle cx="112" cy="304" r="2" fill="#0b3d2e"/>
<circle cx="112" cy="320" r="2" fill="#0b3d2e"/>
<circle cx="112" cy="336" r="2" fill="#0b3d2e"/>
<circle cx="112" cy="352" r="2" fill="#0b3d2e"/>
<circle cx="112" cy="368" r="2" fill="#0b3d2e"/>
<circle cx="112" cy="384" r="2" fill="#0b3d2e"/>
<circle cx="112" cy="400" r="2" fill="#0b3d2e"/>
<circle cx="112" cy="416" r="2" fill="#0b3d2e"/>
<circle cx="112" cy="432" r="2" fill="#0b3d2e"/>
<circle cx="112" cy="448" r="2" fill="#0b3d2e"/>
<circle cx="112" cy="464" r="2" fill="#0b3d2e"/>
<circle cx="112" cy="480" r="2" fill="#0b3d2e"/>
<circle cx="112" cy="496" r="2" fill="#0b3d2e"/>
<circle cx="128" cy="32" r="2" fill="#0b3d2e"/>
<circle cx="128" cy="48" r="2" fill="#0b3d2e"/>
<circle cx="128" cy="64" r="2" fill="#0b3d2e"/>
<circle cx="128" cy="80" r="2" fill="#0b3d2e"/>
<circle cx="128" cy="96" r="2" fill="#0b3d2e"/>
<circle cx="128" cy="112" r="2" fill="#0b3d2e"/>
<circle cx="128" cy="128" r="2" fill="#0b3d2e"/>
<circle cx="128" cy="144" r="2" fill="#0b3d2e"/>
<circle cx="128" cy="160" r="2" fill="#0b3d2e"/>
<circle cx="128" cy="176" r="2" fill="#0b3d2e"/>
<circle cx="128" cy="192" r="2" fill="#0b3d2e"/>
<circle cx="128" cy="208" r="2" fill="#0b3d2e"/>
<circle cx="128" cy="224" r="2" fill="#0b3d2e"/>
<circle cx="128" cy="240" r="2" fill="#0b3d2e"/>
<circle cx="128" cy="256" r="2" fill="#0b3d2e"/>
<circle cx="128" cy="272" r="2" fill="#0b3d2e"/>
<circle cx="128" cy="288" r="2" fill="#0b3d2e"/>
<circle cx="128" cy="304" r="2" fill="#0b3d2e"/>
<circle cx="128" cy="320" r="2" fill="#0b3d2e"/>
<circle cx="128" cy="336" r="2" fill="#0b3d2e"/>
<circle cx="128" cy="352" r="2" fill="#0b3d2e"/>
<circle cx="128" cy="368" r="2" fill="#0b3d2e"/>
<circle cx="128" cy="384" r="2" fill="#0b3d2e"/>
<circle cx="128" cy="400" r="2" fill="#0b3d2e"/>
<circle cx="128" cy="416" r="2" fill="#0b3d2e"/>
<circle cx="128" cy="432" r="2" fill="#0b3d2e"/>
<circle cx="128" cy="448" r="2" fill="#0b3d2e"/>
<circle cx="128" cy="464" r="2" fill="#0b3d2e"/>
<circle cx="128" cy="480" r="2" fill="#0b3d2e"/>
<circle cx="128" cy="496" r="2" fill="#0b3d2e"/>
<circle cx="144" cy="32" r="2" fill="#0b3d2e"/>
<circle cx="144" cy="48" r="2" fill="#0b3d2e"/>
<circle cx="144" cy="64" r="2" fill="#0b3d2e"/>
<circle cx="144" cy="80" r="2" fill="#0b3d2e"/>
<circle cx="144" cy="96" r="2" fill="#0b3d2e"/>
<circle cx="144" cy="112" r="2" fill="#0b3d2e"/>
<circle cx="144" cy="128" r="2" fill="#0b3d2e"/>
<circle cx="144" cy="144" r="2" fill="#0b3d2e"/>
<circle cx="144" cy="160" r="2" fill="#0b3d2e"/>
<circle cx="144" cy="176" r="2" fill="#0b3d2e"/>
<circle cx="144" cy="192" r="2" fill="#0b3d2e"/>
<circle cx="144" cy="208" r="2" fill="#0b3d2e"/>
<circle cx="144" cy="224" r="2" fill="#0b3d2e"/>
<circle cx="144" cy="240" r="2" fill="#0b3d2e"/>
<circle cx="144" cy="256" r="2" fill="#0b3d2e"/>
<circle cx="144" cy="272" r="2" fill="#0b3d2e"/>
<circle cx="144" cy="288" r="2" fill="#0b3d2e"/>
<circle cx="144" cy="304" r="2" fill="#0b3d2e"/>
<circle cx="144" cy="320" r="2" fill="#0b3d2e"/>
<circle cx="144" cy="336" r="2" fill="#0b3d2e"/>
<circle cx="144" cy="352" r="2" fill="#0b3d2e"/>
<circle cx="144" cy="368" r="2" fill="#0b3d2e"/>
<circle cx="144" cy="384" r="2" fill="#0b3d2e"/>
<circle cx="144" cy="400" r="2" fill="#0b3d2e"/>
<circle cx="144" cy="416" r="2" fill="#0b3d2e"/>
<circle cx="144" cy="432" r="2" fill="#0b3d2e"/>
<circle cx="144" cy="448" r="2" fill="#0b3d2e"/>
<circle cx="144" cy="464" r="2" fill="#0b3d2e"/>
<circle cx="144" cy="480" r="2" fill="#0b3d2e"/>
<circle cx="144" cy="496" r="2" fill="#0b3d2e"/>
<circle cx="160" cy="32" r="2" fill="#0b3d2e"/>
<circle cx="160" cy="48" r="2" fill="#0b3d2e"/>
<circle cx="160" cy="64" r="2" fill="#0b3d2e"/>
<circle cx="160" cy="80" r="2" fill="#0b3d2e"/>
<circle cx="160" cy="96" r="2" fill="#0b3d2e"/>
<circle cx="160" cy="112" r="2" fill="#0b3d2e"/>
<circle cx="160" cy="128" r="2" fill="#0b3d2e"/>
<circle cx="160" cy="144" r="2" fill="#0b3d2e"/>
<circle cx="160" cy="160" r="2" fill="#0b3d2e"/>
<circle cx="160" cy="176" r="2" fill="#0b3d2e"/>
<circle cx="160" cy="192" r="2" fill="#0b3d2e"/>
<circle cx="160" cy="208" r="2" fill="#0b3d2e"/>
<circle cx="160" cy="224" r="2" fill="#0b3d2e"/>
<circle cx="160" cy="240" r="2" fill="#0b3d2e"/>
<circle cx="160" cy="256" r="2" fill="#0b3d2e"/>
<circle cx="160" cy="272" r="2" fill="#0b3d2e"/>
<circle cx="160" cy="288" r="2" fill="#0b3d2e"/>
<circle cx="160" cy="304" r="2" fill="#0b3d2e"/>
<circle cx="160" cy="320" r="2" fill="#0b3d2e"/>
<circle cx="160" cy="336" r="2" fill="#0b3d2e"/>
<circle cx="160" cy="352" r="2" fill="#0b3d2e"/>
<circle cx="160" cy="368" r="2" fill="#0b3d2e"/>
<circle cx="160" cy="384" r="2" fill="#0b3d2e"/>
<circle cx="160" cy="400" r="2" fill="#0b3d2e"/>
<circle cx="160" cy="416" r="2" fill="#0b3d2e"/>
<circle cx="160" cy="432" r="2" fill="#0b3d2e"/>
<circle cx="160" cy="448" r="2" fill="#0b3d2e"/>
<circle cx="160" cy="464" r="2" fill="#0b3d2e"/>
<circle cx="160" cy="480" r="2" fill="#0b3d2e"/>
<circle cx="160" cy="496" r="2" fill="#0b3d2e"/>
<circle cx="176" cy="32" r="2" fill="#0b3d2e"/>
<circle cx="176" cy="48" r="2" fill="#0b3d2e"/>
<circle cx="176" cy="64" r="2" fill="#0b3d2e"/>
<circle cx="176" cy="80" r="2" fill="#0b3d2e"/>
<circle cx="176" cy="96" r="2" fill="#0b3d2e"/>
<circle cx="176" cy="112" r="2" fill="#0b3d2e"/>
<circle cx="176" cy="128" r="2" fill="#0b3d2e"/>
<circle cx="176" cy="144" r="2" fill="#0b3d2e"/>
<circle cx="176" cy="160" r="2" fill="#0b3d2e"/>
<circle cx="176" cy="176" r="2" fill="#0b3d2e"/>
<circle cx="176" cy="192" r="2" fill="#0b3d2e"/>
<circle cx="176" cy="208" r="2" fill="#0b3d2e"/>
<circle cx="176" cy="224" r="2" fill="#0b3d2e"/>
<circle cx="176" cy="240" r="2" fill="#0b3d2e"/>
<circle cx="176" cy="256" r="2" fill="#0b3d2e"/>
<circle cx="176" cy="272" r="2" fill="#0b3d2e"/>
<circle cx="176" cy="288" r="2" fill="#0b3d2e"/>
<circle cx="176" cy="304" r="2" fill="#0b3d2e"/>
<circle cx="176" cy="320" r="2" fill="#0b3d2e"/>
<circle cx="176" cy="336" r="2" fill="#0b3d2e"/>
<circle cx="176" cy="352" r="2" fill="#0b3d2e"/>
<circle cx="176" cy="368" r="2" fill="#0b3d2e"/>
<circle cx="176" cy="384" r="2" fill="#0b3d2e"/>
<circle cx="176" cy="400" r="2" fill="#0b3d2e"/>
<circle cx="176" cy="416" r="2" fill="#0b3d2e"/>
<circle cx="176" cy="432" r="2" fill="#0b3d2e"/>
<circle cx="176" cy="448" r="2" fill="#0b3d2e"/>
<circle cx="176" cy="464" r="2" fill="#0b3d2e"/>
<circle cx="176" cy="480" r="2" fill="#0b3d2e"/>
<circle cx="176" cy="496" r="2" fill="#0b3d2e"/>
<circle cx="192" cy="32" r="2" fill="#0b3d2e"/>
<circle cx="192" cy="48" r="2" fill="#0b3d2e"/>
<circle cx="192" cy="64" r="2" fill="#0b3d2e"/>
<circle cx="192" cy="80" r="2" fill="#0b3d2e"/>
<circle cx="192" cy="96" r="2" fill="#0b3d2e"/>
<circle cx="192" cy="112" r="2" fill="#0b3d2e"/>
<circle cx="192" cy="128" r="2" fill="#0b3d2e"/>
<circle cx="192" cy="144" r="2" fill="#0b3d2e"/>
<circle cx="192" cy="160" r="2" fill="#0b3d2e"/>
<circle cx="192" cy="176" r="2" fill="#0b3d2e"/>
<circle cx="192" cy="192" r="2" fill="#0b3d2e"/>
<circle cx="192" cy="208" r="2" fill="#0b3d2e"/>
<circle cx="192" cy="224" r="2" fill="#0b3d2e"/>
<circle cx="192" cy="240" r="2" fill="#0b3d2e"/>
<circle cx="192" cy="256" r="2" fill="#0b3d2e"/>
<circle cx="192" cy="272" r="2" fill="#0b3d2e"/>
<circle cx="192" cy="288" r="2" fill="#0b3d2e"/>
<circle cx="192" cy="304" r="2" fill="#0b3d2e"/>
<circle cx="192" cy="320" r="2" fill="#0b3d2e"/>
<circle cx="192" cy="336" r="2" fill="#0b3d2e"/>
<circle cx="192" cy="352" r="2" fill="#0b3d2e"/>
<circle cx="192" cy="368" r="2" fill="#0b3d2e"/>
<circle cx="192" cy="384" r="2" fill="#0b3d2e"/>
<circle cx="192" cy="400" r="2" fill="#0b3d2e"/>
<circle cx="192" cy="416" r="2" fill="#0b3d2e"/>
<circle cx="192" cy="432" r="2" fill="#0b3d2e"/>
<circle cx="192" cy="448" r="2" fill="#0b3d2e"/>
<circle cx="192" cy="464" r="2" fill="#0b3d2e"/>
<circle cx="192" cy="480" r="2" fill="#0b3d2e"/>
<circle cx="192" cy="496" r="2" fill="#0b3d2e"/>
<circle cx="208" cy="32" r="2" fill="#0b3d2e"/>
<circle cx="208" cy="48" r="2" fill="#0b3d2e"/>
<circle cx="208" cy="64" r="2" fill="#0b3d2e"/>
<circle cx="208" cy="80" r="2" fill="#0b3d2e"/>
<circle cx="208" cy="96" r="2" fill="#0b3d2e"/>
<circle cx="208" cy="112" r="2" fill="#0b3d2e"/>
<circle cx="208" cy="128" r="2" fill="#0b3d2e"/>
<circle cx="208" cy="144" r="2" fill="#0b3d2e"/>
<circle cx="208" cy="160" r="2" fill="#0b3d2e"/>
<circle cx="208" cy="176" r="2" fill="#0b3d2e"/>
<circle cx="208" cy="192" r="2" fill="#0b3d2e"/>
<circle cx="208" cy="208" r="2" fill="#0b3d2e"/>
<circle cx="208" cy="224" r="2" fill="#0b3d2e"/>
<circle cx="208" cy="240" r="2" fill="#0b3d2e"/>
<circle cx="208" cy="256" r="2" fill="#0b3d2e"/>
<circle cx="208" cy="272" r="2" fill="#0b3d2e"/>
<circle cx="208" cy="288" r="2" fill="#0b3d2e"/>
<circle cx="208" cy="304" r="2" fill="#0b3d2e"/>
<circle cx="208" cy="320" r="2" fill="#0b3d2e"/>
<circle cx="208" cy="336" r="2" fill="#0b3d2e"/>
<circle cx="208" cy="352" r="2" fill="#0b3d2e"/>
<circle cx="208" cy="368" r="2" fill="#0b3d2e"/>
<circle cx="208" cy="384" r="2" fill="#0b3d2e"/>
<circle cx="208" cy="400" r="2" fill="#0b3d2e"/>
<circle cx="208" cy="416" r="2" fill="#0b3d2e"/>
<circle cx="208" cy="432" r="2" fill="#0b3d2e"/>
<circle cx="208" cy="448" r="2" fill="#0b3d2e"/>
<circle cx="208" cy="464" r="2" fill="#0b3d2e"/>
<circle cx="208" cy="480" r="2" fill="#0b3d2e"/>
<circle cx="208" cy="496" r="2" fill="#0b3d2e"/>
<circle cx="224" cy="32" r="2" fill="#0b3d2e"/>
<circle cx="224" cy="48" r="2" fill="#0b3d2e"/>
<circle cx="224" cy="64" r="2" fill="#0b3d2e"/>
<circle cx="224" cy="80" r="2" fill="#0b3d2e"/>
<circle cx="224" cy="96" r="2" fill="#0b3d2e"/>
<circle cx="224" cy="112" r="2" fill="#0b3d2e"/>
<circle cx="224" cy="128" r="2" fill="#0b3d2e"/>
<circle cx="224" cy="144" r="2" fill="#0b3d2e"/>
<circle cx="224" cy="160" r="2" fill="#0b3d2e"/>
<circle cx="224" cy="176" r="2" fill="#0b3d2e"/>
<circle cx="224" cy="192" r="2" fill="#0b3d2e"/>
<circle cx="224" cy="208" r="2" fill="#0b3d2e"/>
<circle cx="224" cy="224" r="2" fill="#0b3d2e"/>
<circle cx="224" cy="240" r="2" fill="#0b3d2e"/>
<circle cx="224" cy="256" r="2" fill="#0b3d2e"/>
<circle cx="224" cy="272" r="2" fill="#0b3d2e"/>
<circle cx="224" cy="288" r="2" fill="#0b3d2e"/>
<circle cx="224" cy="304" r="2" fill="#0b3d2e"/>
<circle cx="224" cy="320" r="2" fill="#0b3d2e"/>
<circle cx="224" cy="336" r="2" fill="#0b3d2e"/>
<circle cx="224" cy="352" r="2" fill="#0b3d2e"/>
<circle cx="224" cy="368" r="2" fill="#0b3d2e"/>
<circle cx="224" cy="384" r="2" fill="#0b3d2e"/>
<circle cx="224" cy="400" r="2" fill="#0b3d2e"/>
<circle cx="224" cy="416" r="2" fill="#0b3d2e"/>
<circle cx="224" cy="432" r="2" fill="#0b3d2e"/>
<circle cx="224" cy="448" r="2" fill="#0b3d2e"/>
<circle cx="224" cy="464" r="2" fill="#0b3d2e"/>
<circle cx="224" cy="480" r="2" fill="#0b3d2e"/>
<circle cx="224" cy="496" r="2" fill="#0b3d2e"/>
<circle cx="240" cy="32" r="2" fill="#0b3d2e"/>
<circle cx="240" cy="48" r="2" fill="#0b3d2e"/>
<circle cx="240" cy="64" r="2" fill="#0b3d2e"/>
<circle cx="240" cy="80" r="2" fill="#0b3d2e"/>
<circle cx="240" cy="96" r="2" fill="#0b3d2e"/>
<circle cx="240" cy="112" r="2" fill="#0b3d2e"/>
<circle cx="240" cy="128" r="2" fill="#0b3d2e"/>
<circle cx="240" cy="144" r="2" fill="#0b3d2e"/>
<circle cx="240" cy="160" r="2" fill="#0b3d2e"/>
<circle cx="240" cy="176" r="2" fill="#0b3d2e"/>
<circle cx="240" cy="192" r="2" fill="#0b3d2e"/>
<circle cx="240" cy="208" r="2" fill="#0b3d2e"/>
<circle cx="240" cy="224" r="2" fill="#0b3d2e"/>
<circle cx="240" cy="240" r="2" fill="#0b3d2e"/>
<circle cx="240" cy="256" r="2" fill="#0b3d2e"/>
<circle cx="240" cy="272" r="2" fill="#0b3d2e"/>
<circle cx="240" cy="288" r="2" fill="#0b3d2e"/>
<circle cx="240" cy="304" r="2" fill="#0b3d2e"/>
<circle cx="240" cy="320" r="2" fill="#0b3d2e"/>
<circle cx="240" cy="336" r="2" fill="#0b3d2e"/>
<circle cx="240" cy="352" r="2" fill="#0b3d2e"/>
<circle cx="240" cy="368" r="2" fill="#0b3d2e"/>
<circle cx="240" cy="384" r="2" fill="#0b3d2e"/>
<circle cx="240" cy="400" r="2" fill="#0b3d2e"/>
<circle cx="240" cy="416" r="2" fill="#0b3d2e"/>
<circle cx="240" cy="432" r="2" fill="#0b3d2e"/>
<circle cx="240" cy="448" r="2" fill="#0b3d2e"/>
<circle cx="240" cy="464" r="2" fill="#0b3d2e"/>
<circle cx="240" cy="480" r="2" fill="#0b3d2e"/>
<circle cx="240" cy="496" r="2" fill="#0b3d2e"/>
<circle cx="256" cy="32" r="2" fill="#0b3d2e"/>
<circle cx="256" cy="48" r="2" fill="#0b3d2e"/>
<circle cx="256" cy="64" r="2" fill="#0b3d2e"/>
<circle cx="256" cy="80" r="2" fill="#0b3d2e"/>
<circle cx="256" cy="96" r="2" fill="#0b3d2e"/>
<circle cx="256" cy="112" r="2" fill="#0b3d2e"/>
<circle cx="256" cy="128" r="2" fill="#0b3d2e"/>
<circle cx="256" cy="144" r="2" fill="#0b3d2e"/>
<circle cx="256" cy="160" r="2" fill="#0b3d2e"/>
<circle cx="256" cy="176" r="2" fill="#0b3d2e"/>
<circle cx="256" cy="192" r="2" fill="#0b3d2e"/>
<circle cx="256" cy="208" r="2" fill="#0b3d2e"/>
<circle cx="256" cy="224" r="2" fill="#0b3d2e"/>
<circle cx="256" cy="240" r="2" fill="#0b3d2e"/>
<circle cx="256" cy="256" r="2" fill="#0b3d2e"/>
<circle cx="256" cy="272" r="2" fill="#0b3d2e"/>
<circle cx="256" cy="288" r="2" fill="#0b3d2e"/>
<circle cx="256" cy="304" r="2" fill="#0b3d2e"/>
<circle cx="256" cy="320" r="2" fill="#0b3d2e"/>
<circle cx="256" cy="336" r="2" fill="#0b3d2e"/>
<circle cx="256" cy="352" r="2" fill="#0b3d2e"/>
<circle cx="256" cy="368" r="2" fill="#0b3d2e"/>
<circle cx="256" cy="384" r="2" fill="#0b3d2e"/>
<circle cx="256" cy="400" r="2" fill="#0b3d2e"/>
<circle cx="256" cy="416" r="2" fill="#0b3d2e"/>
<circle cx="256" cy="432" r="2" fill="#0b3d2e"/>
<circle cx="256" cy="448" r="2" fill="#0b3d2e"/>
<circle cx="256" cy="464" r="2" fill="#0b3d2e"/>
<circle cx="256" cy="480" r="2" fill="#0b3d2e"/>
<circle cx="256" cy="496" r="2" fill="#0b3d2e"/>
<circle cx="272" cy="32" r="2" fill="#0b3d2e"/>
<circle cx="272" cy="48" r="2" fill="#0b3d2e"/>
<circle cx="272" cy="64" r="2" fill="#0b3d2e"/>
<circle cx="272" cy="80" r="2" fill="#0b3d2e"/>
<circle cx="272" cy="96" r="2" fill="#0b3d2e"/>
<circle cx="272" cy="112" r="2" fill="#0b3d2e"/>
<circle cx="272" cy="128" r="2" fill="#0b3d2e"/>
<circle cx="272" cy="144" r="2" fill="#0b3d2e"/>
<circle cx="272" cy="160" r="2" fill="#0b3d2e"/>
<circle cx="272" cy="176" r="2" fill="#0b3d2e"/>
<circle cx="272" cy="192" r="2" fill="#0b3d2e"/>
<circle cx="272" cy="208" r="2" fill="#0b3d2e"/>
<circle cx="272" cy="224" r="2" fill="#0b3d2e"/>
<circle cx="272" cy="240" r="2" fill="#0b3d2e"/>
<circle cx="272" cy="256" r="2" fill="#0b3d2e"/>
<circle cx="272" cy="272" r="2" fill="#0b3d2e"/>
<circle cx="272" cy="288" r="2" fill="#0b3d2e"/>
<circle cx="272" cy="304" r="2" fill="#0b3d2e"/>
<circle cx="272" cy="320" r="2" fill="#0b3d2e"/>
<circle cx="272" cy="336" r="2" fill="#0b3d2e"/>
<circle cx="272" cy="352" r="2" fill="#0b3d2e"/>
<circle cx="272" cy="368" r="2" fill="#0b3d2e"/>
<circle cx="272" cy="384" r="2" fill="#0b3d2e"/>
<circle cx="272" cy="400" r="2" fill="#0b3d2e"/>
<circle cx="272" cy="416" r="2" fill="#0b3d2e"/>
<circle cx="272" cy="432" r="2" fill="#0b3d2e"/>
<circle cx="272" cy="448" r="2" fill="#0b3d2e"/>
<circle cx="272" cy="464" r="2" fill="#0b3d2e"/>
<circle cx="272" cy="480" r="2" fill="#0b3d2e"/>
<circle cx="272" cy="496" r="2" fill="#0b3d2e"/>
<circle cx="288" cy="32" r="2" fill="#0b3d2e"/>
<circle cx="288" cy="48" r="2" fill="#0b3d2e"/>
<circle cx="288" cy="64" r="2" fill="#0b3d2e"/>
<circle cx="288" cy="80" r="2" fill="#0b3d2e"/>
<circle cx="288" cy="96" r="2" fill="#0b3d2e"/>
<circle cx="288" cy="112" r="2" fill="#0b3d2e"/>
<circle cx="288" cy="128" r="2" fill="#0b3d2e"/>
<circle cx="288" cy="144" r="2" fill="#0b3d2e"/>
<circle cx="288" cy="160" r="2" fill="#0b3d2e"/>
<circle cx="288" cy="176" r="2" fill="#0b3d2e"/>
<circle cx="288" cy="192" r="2" fill="#0b3d2e"/>
<circle cx="288" cy="208" r="2" fill="#0b3d2e"/>
<circle cx="288" cy="224" r="2" fill="#0b3d2e"/>
<circle cx="288" cy="240" r="2" fill="#0b3d2e"/>
<circle cx="288" cy="256" r="2" fill="#0b3d2e"/>
<circle cx="288" cy="272" r="2" fill="#0b3d2e"/>
<circle cx="288" cy="288" r="2" fill="#0b3d2e"/>
<circle cx="288" cy="304" r="2" fill="#0b3d2e"/>
<circle cx="288" cy="320" r="2" fill="#0b3d2e"/>
<circle cx="288" cy="336" r="2" fill="#0b3d2e"/>
<circle cx="288" cy="352" r="2" fill="#0b3d2e"/>
<circle cx="288" cy="368" r="2" fill="#0b3d2e"/>
<circle cx="288" cy="384" r="2" fill="#0b3d2e"/>
<circle cx="288" cy="400" r="2" fill="#0b3d2e"/>
<circle cx="288" cy="416" r="2" fill="#0b3d2e"/>
<circle cx="288" cy="432" r="2" fill="#0b3d2e"/>
<circle cx="288" cy="448" r="2" fill="#0b3d2e"/>
<circle cx="288" cy="464" r="2" fill="#0b3d2e"/>
<circle cx="288" cy="480" r="2" fill="#0b3d2e"/>
<circle cx="288" cy="496" r="2" fill="#0b3d2e"/>
<circle cx="304" cy="32" r="2" fill="#0b3d2e"/>
<circle cx="304" cy="48" r="2" fill="#0b3d2e"/>
<circle cx="304" cy="64" r="2" fill="#0b3d2e"/>
<circle cx="304" cy="80" r="2" fill="#0b3d2e"/>
<circle cx="304" cy="96" r="2" fill="#0b3d2e"/>
<circle cx="304" cy="112" r="2" fill="#0b3d2e"/>
<circle cx="304" cy="128" r="2" fill="#0b3d2e"/>
<circle cx="304" cy="144" r="2" fill="#0b3d2e"/>
<circle cx="304" cy="160" r="2" fill="#0b3d2e"/>
<circle cx="304" cy="176" r="2" fill="#0b3d2e"/>
<circle cx="304" cy="192" r="2" fill="#0b3d2e"/>
<circle cx="304" cy="208" r="2" fill="#0b3d2e"/>
<circle cx="304" cy="224" r="2" fill="#0b3d2e"/>
<circle cx="304" cy="240" r="2" fill="#0b3d2e"/>
<circle cx="304" cy="256" r="2" fill="#0b3d2e"/>
<circle cx="304" cy="272" r="2" fill="#0b3d2e"/>
<circle cx="304" cy="288" r="2" fill="#0b3d2e"/>
<circle cx="304" cy="304" r="2" fill="#0b3d2e"/>
<circle cx="304" cy="320" r="2" fill="#0b3d2e"/>
<circle cx="304" cy="336" r="2" fill="#0b3d2e"/>
<circle cx="304" cy="352" r="2" fill="#0b3d2e"/>
<circle cx="304" cy="368" r="2" fill="#0b3d2e"/>
<circle cx="304" cy="384" r="2" fill="#0b3d2e"/>
<circle cx="304" cy="400" r="2" fill="#0b3d2e"/>
<circle cx="304" cy="416" r="2" fill="#0b3d2e"/>
<circle cx="304" cy="432" r="2" fill="#0b3d2e"/>
<circle cx="304" cy="448" r="2" fill="#0b3d2e"/>
<circle cx="304" cy="464" r="2" fill="#0b3d2e"/>
<circle cx="304" cy="480" r="2" fill="#0b3d2e"/>
<circle cx="304" cy="496" r="2" fill="#0b3d2e"/>
<circle cx="320" cy="32" r="2" fill="#0b3d2e"/>
<circle cx="320" cy="48" r="2" fill="#0b3d2e"/>
<circle cx="320" cy="64" r="2" fill="#0b3d2e"/>
<circle cx="320" cy="80" r="2" fill="#0b3d2e"/>
<circle cx="320" cy="96" r="2" fill="#0b3d2e"/>
<circle cx="320" cy="112" r="2" fill="#0b3d2e"/>
<circle cx="320" cy="128" r="2" fill="#0b3d2e"/>
<circle cx="320" cy="144" r="2" fill="#0b3d2e"/>
<circle cx="320" cy="160" r="2" fill="#0b3d2e"/>
<circle cx="320" cy="176" r="2" fill="#0b3d2e"/>
<circle cx="320" cy="192" r="2" fill="#0b3d2e"/>
<circle cx="320" cy="208" r="2" fill="#0b3d2e"/>
<circle cx="320" cy="224" r="2" fill="#0b3d2e"/>
<circle cx="320" cy="240" r="2" fill="#0b3d2e"/>
<circle cx="320" cy="256" r="2" fill="#0b3d2e"/>
<circle cx="320" cy="272" r="2" fill="#0b3d2e"/>
<circle cx="320" cy="288" r="2" fill="#0b3d2e"/>
<circle cx="320" cy="304" r="2" fill="#0b3d2e"/>
<circle cx="320" cy="320" r="2" fill="#0b3d2e"/>
<circle cx="320" cy="336" r="2" fill="#0b3d2e"/>
<circle cx="320" cy="352" r="2" fill="#0b3d2e"/>
<circle cx="320" cy="368" r="2" fill="#0b3d2e"/>
<circle cx="320" cy="384" r="2" fill="#0b3d2e"/>
<circle cx="320" cy="400" r="2" fill="#0b3d2e"/>
<circle cx="320" cy="416" r="2" fill="#0b3d2e"/>
<circle cx="320" cy="432" r="2" fill="#0b3d2e"/>
<circle cx="320" cy="448" r="2" fill="#0b3d2e"/>
<circle cx="320" cy="464" r="2" fill="#0b3d2e"/>
<circle cx="320" cy="480" r="2" fill="#0b3d2e"/>
<circle cx="320" cy="496" r="2" fill="#0b3d2e"/>
<circle cx="336" cy="32" r="2" fill="#0b3d2e"/>
<circle cx="336" cy="48" r="2" fill="#0b3d2e"/>
<circle cx="336" cy="64" r="2" fill="#0b3d2e"/>
<circle cx="336" cy="80" r="2" fill="#0b3d2e"/>
<circle cx="336" cy="96" r="2" fill="#0b3d2e"/>
<circle cx="336" cy="112" r="2" fill="#0b3d2e"/>
<circle cx="336" cy="128" r="2" fill="#0b3d2e"/>
<circle cx="336" cy="144" r="2" fill="#0b3d2e"/>
<circle cx="336" cy="160" r="2" fill="#0b3d2e"/>
<circle cx="336" cy="176" r="2" fill="#0b3d2e"/>
<circle cx="336" cy="192" r="2" fill="#0b3d2e"/>
<circle cx="336" cy="208" r="2" fill="#0b3d2e"/>
<circle cx="336" cy="224" r="2" fill="#0b3d2e"/>
<circle cx="336" cy="240" r="2" fill="#0b3d2e"/>
<circle cx="336" cy="256" r="2" fill="#0b3d2e"/>
<circle cx="336" cy="272" r="2" fill="#0b3d2e"/>
<circle cx="336" cy="288" r="2" fill="#0b3d2e"/>
<circle cx="336" cy="304" r="2" fill="#0b3d2e"/>
<circle cx="336" cy="320" r="2" fill="#0b3d2e"/>
<circle cx="336" cy="336" r="2" fill="#0b3d2e"/>
<circle cx="336" cy="352" r="2" fill="#0b3d2e"/>
<circle cx="336" cy="368" r="2" fill="#0b3d2e"/>
<circle cx="336" cy="384" r="2" fill="#0b3d2e"/>
<circle cx="336" cy="400" r="2" fill="#0b3d2e"/>
<circle cx="336" cy="416" r="2" fill="#0b3d2e"/>
<circle cx="336" cy="432" r="2" fill="#0b3d2e"/>
<circle cx="336" cy="448" r="2" fill="#0b3d2e"/>
<circle cx="336" cy="464" r="2" fill="#0b3d2e"/>
<circle cx="336" cy="480" r="2" fill="#0b3d2e"/>
<circle cx="336" cy="496" r="2" fill="#0b3d2e"/>
<circle cx="352" cy="32" r="2" fill="#0b3d2e"/>
<circle cx="352" cy="48" r="2" fill="#0b3d2e"/>
<circle cx="352" cy="64" r="2" fill="#0b3d2e"/>
<circle cx="352" cy="80" r="2" fill="#0b3d2e"/>
<circle cx="352" cy="96" r="2" fill="#0b3d2e"/>
<circle cx="352" cy="112" r="2" fill="#0b3d2e"/>
<circle cx="352" cy="128" r="2" fill="#0b3d2e"/>
<circle cx="352" cy="144" r="2" fill="#0b3d2e"/>
<circle cx="352" cy="160" r="2" fill="#0b3d2e"/>
<circle cx="352" cy="176" r="2" fill="#0b3d2e"/>
<circle cx="352" cy="192" r="2" fill="#0b3d2e"/>
<circle cx="352" cy="208" r="2" fill="#0b3d2e"/>
<circle cx="352" cy="224" r="2" fill="#0b3d2e"/>
<circle cx="352" cy="240" r="2" fill="#0b3d2e"/>
<circle cx="352" cy="256" r="2" fill="#0b3d2e"/>
<circle cx="352" cy="272" r="2" fill="#0b3d2e"/>
<circle cx="352" cy="288" r="2" fill="#0b3d2e"/>
<circle cx="352" cy="304" r="2" fill="#0b3d2e"/>
<circle cx="352" cy="320" r="2" fill="#0b3d2e"/>
<circle cx="352" cy="336" r="2" fill="#0b3d2e"/>
<circle cx="352" cy="352" r="2" fill="#0b3d2e"/>
<circle cx="352" cy="368" r="2" fill="#0b3d2e"/>
<circle cx="352" cy="384" r="2" fill="#0b3d2e"/>
<circle cx="352" cy="400" r="2" fill="#0b3d2e"/>
<circle cx="352" cy="416" r="2" fill="#0b3d2e"/>
<circle cx="352" cy="432" r="2" fill="#0b3d2e"/>
<circle cx="352" cy="448" r="2" fill="#0b3d2e"/>
<circle cx="352" cy="464" r="2" fill="#0b3d2e"/>
<circle cx="352" cy="480" r="2" fill="#0b3d2e"/>
<circle cx="352" cy="496" r="2" fill="#0b3d2e"/>
<circle cx="368" cy="32" r="2" fill="#0b3d2e"/>
<circle cx="368" cy="48" r="2" fill="#0b3d2e"/>
<circle cx="368" cy="64" r="2" fill="#0b3d2e"/>
<circle cx="368" cy="80" r="2" fill="#0b3d2e"/>
<circle cx="368" cy="96" r="2" fill="#0b3d2e"/>
<circle cx="368" cy="112" r="2" fill="#0b3d2e"/>
<circle cx="368" cy="128" r="2" fill="#0b3d2e"/>
<circle cx="368" cy="144" r="2" fill="#0b3d2e"/>
<circle cx="368" cy="160" r="2" fill="#0b3d2e"/>
<circle cx="368" cy="176" r="2" fill="#0b3d2e"/>
<circle cx="368" cy="192" r="2" fill="#0b3d2e"/>
<circle cx="368" cy="208" r="2" fill="#0b3d2e"/>
<circle cx="368" cy="224" r="2" fill="#0b3d2e"/>
<circle cx="368" cy="240" r="2" fill="#0b3d2e"/>
<circle cx="368" cy="256" r="2" fill="#0b3d2e"/>
<circle cx="368" cy="272" r="2" fill="#0b3d2e"/>
<circle cx="368" cy="288" r="2" fill="#0b3d2e"/>
<circle cx="368" cy="304" r="2" fill="#0b3d2e"/>
<circle cx="368" cy="320" r="2" fill="#0b3d2e"/>
<circle cx="368" cy="336" r="2" fill="#0b3d2e"/>
<circle cx="368" cy="352" r="2" fill="#0b3d2e"/>
<circle cx="368" cy="368" r="2" fill="#0b3d2e"/>
<circle cx="368" cy="384" r="2" fill="#0b3d2e"/>
<circle cx="368" cy="400" r="2" fill="#0b3d2e"/>
<circle cx="368" cy="416" r="2" fill="#0b3d2e"/>
<circle cx="368" cy="432" r="2" fill="#0b3d2e"/>
<circle cx="368" cy="448" r="2" fill="#0b3d2e"/>
<circle cx="368" cy="464" r="2" fill="#0b3d2e"/>
<circle cx="368" cy="480" r="2" fill="#0b3d2e"/>
<circle cx="368" cy="496" r="2" fill="#0b3d2e"/>
<circle cx="384" cy="32" r="2" fill="#0b3d2e"/>
<circle cx="384" cy="48" r="2" fill="#0b3d2e"/>
<circle cx="384" cy="64" r="2" fill="#0b3d2e"/>
<circle cx="384" cy="80" r="2" fill="#0b3d2e"/>
<circle cx="384" cy="96" r="2" fill="#0b3d2e"/>
<circle cx="384" cy="112" r="2" fill="#0b3d2e"/>
<circle cx="384" cy="128" r="2" fill="#0b3d2e"/>
<circle cx="384" cy="144" r="2" fill="#0b3d2e"/>
<circle cx="384" cy="160" r="2" fill="#0b3d2e"/>
<circle cx="384" cy="176" r="2" fill="#0b3d2e"/>
<circle cx="384" cy="192" r="2" fill="#0b3d2e"/>
<circle cx="384" cy="208" r="2" fill="#0b3d2e"/>
<circle cx="384" cy="224" r="2" fill="#0b3d2e"/>
<circle cx="384" cy="240" r="2" fill="#0b3d2e"/>
<circle cx="384" cy="256" r="2" fill="#0b3d2e"/>
<circle cx="384" cy="272" r="2" fill="#0b3d2e"/>
<circle cx="384" cy="288" r="2" fill="#0b3d2e"/>
<circle cx="384" cy="304" r="2" fill="#0b3d2e"/>
<circle cx="384" cy="320" r="2" fill="#0b3d2e"/>
<circle cx="384" cy="336" r="2" fill="#0b3d2e"/>
<circle cx="384" cy="352" r="2" fill="#0b3d2e"/>
<circle cx="384" cy="368" r="2" fill="#0b3d2e"/>
<circle cx="384" cy="384" r="2" fill="#0b3d2e"/>
<circle cx="384" cy="400" r="2" fill="#0b3d2e"/>
<circle cx="384" cy="416" r="2" fill="#0b3d2e"/>
<circle cx="384" cy="432" r="2" fill="#0b3d2e"/>
<circle cx="384" cy="448" r="2" fill="#0b3d2e"/>
<circle cx="384" cy="464" r="2" fill="#0b3d2e"/>
<circle cx="384" cy="480" r="2" fill="#0b3d2e"/>
<circle cx="384" cy="496" r="2" fill="#0b3d2e"/>
<circle cx="400" cy="32" r="2" fill="#0b3d2e"/>
<circle cx="400" cy="48" r="2" fill="#0b3d2e"/>
<circle cx="400" cy="64" r="2" fill="#0b3d2e"/>
<circle cx="400" cy="80" r="2" fill="#0b3d2e"/>
<circle cx="400" cy="96" r="2" fill="#0b3d2e"/>
<circle cx="400" cy="112" r="2" fill="#0b3d2e"/>
<circle cx="400" cy="128" r="2" fill="#0b3d2e"/>
<circle cx="400" cy="144" r="2" fill="#0b3d2e"/>
<circle cx="400" cy="160" r="2" fill="#0b3d2e"/>
<circle cx="400" cy="176" r="2" fill="#0b3d2e"/>
<circle cx="400" cy="192" r="2" fill="#0b3d2e"/>
<circle cx="400" cy="208" r="2" fill="#0b3d2e"/>
<circle cx="400" cy="224" r="2" fill="#0b3d2e"/>
<circle cx="400" cy="240" r="2" fill="#0b3d2e"/>
<circle cx="400" cy="256" r="2" fill="#0b3d2e"/>
<circle cx="400" cy="272" r="2" fill="#0b3d2e"/>
<circle cx="400" cy="288" r="2" fill="#0b3d2e"/>
<circle cx="400" cy="304" r="2" fill="#0b3d2e"/>
<circle cx="400" cy="320" r="2" fill="#0b3d2e"/>
<circle cx="400" cy="336" r="2" fill="#0b3d2e"/>
<circle cx="400" cy="352" r="2" fill="#0b3d2e"/>
<circle cx="400" cy="368" r="2" fill="#0b3d2e"/>
<circle cx="400" cy="384" r="2" fill="#0b3d2e"/>
<circle cx="400" cy="400" r="2" fill="#0b3d2e"/>
<circle cx="400" cy="416" r="2" fill="#0b3d2e"/>
<circle cx="400" cy="432" r="2" fill="#0b3d2e"/>
<circle cx="400" cy="448" r="2" fill="#0b3d2e"/>
<circle cx="400" cy="464" r="2" fill="#0b3d2e"/>
<circle cx="400" cy="480" r="2" fill="#0b3d2e"/>
<circle cx="400" cy="496" r="2" fill="#0b3d2e"/>
<circle cx="416" cy="32" r="2" fill="#0b3d2e"/>
<circle cx="416" cy="48" r="2" fill="#0b3d2e"/>
<circle cx="416" cy="64" r="2" fill="#0b3d2e"/>
<circle cx="416" cy="80" r="2" fill="#0b3d2e"/>
<circle cx="416" cy="96" r="2" fill="#0b3d2e"/>
<circle cx="416" cy="112" r="2" fill="#0b3d2e"/>
<circle cx="416" cy="128" r="2" fill="#0b3d2e"/>
<circle cx="416" cy="144" r="2" fill="#0b3d2e"/>
<circle cx="416" cy="160" r="2" fill="#0b3d2e"/>
<circle cx="416" cy="176" r="2" fill="#0b3d2e"/>
<circle cx="416" cy="192" r="2" fill="#0b3d2e"/>
<circle cx="416" cy="208" r="2" fill="#0b3d2e"/>
<circle cx="416" cy="224" r="2" fill="#0b3d2e"/>
<circle cx="416" cy="240" r="2" fill="#0b3d2e"/>
<circle cx="416" cy="256" r="2" fill="#0b3d2e"/>
<circle cx="416" cy="272" r="2" fill="#0b3d2e"/>
<circle cx="416" cy="288" r="2" fill="#0b3d2e"/>
<circle cx="416" cy="304" r="2" fill="#0b3d2e"/>
<circle cx="416" cy="320" r="2" fill="#0b3d2e"/>
<circle cx="416" cy="336" r="2" fill="#0b3d2e"/>
<circle cx="416" cy="352" r="2" fill="#0b3d2e"/>
<circle cx="416" cy="368" r="2" fill="#0b3d2e"/>
<circle cx="416" cy="384" r="2" fill="#0b3d2e"/>
<circle cx="416" cy="400" r="2" fill="#0b3d2e"/>
<circle cx="416" cy="416" r="2" fill="#0b3d2e"/>
<circle cx="416" cy="432" r="2" fill="#0b3d2e"/>
<circle cx="416" cy="448" r="2" fill="#0b3d2e"/>
<circle cx="416" cy="464" r="2" fill="#0b3d2e"/>
<circle cx="416" cy="480" r="2" fill="#0b3d2e"/>
<circle cx="416" cy="496" r="2" fill="#0b3d2e"/>
<circle cx="432" cy="32" r="2" fill="#0b3d2e"/>
<circle cx="432" cy="48" r="2" fill="#0b3d2e"/>
<circle cx="432" cy="64" r="2" fill="#0b3d2e"/>
<circle cx="432" cy="80" r="2" fill="#0b3d2e"/>
<circle cx="432" cy="96" r="2" fill="#0b3d2e"/>
<circle cx="432" cy="112" r="2" fill="#0b3d2e"/>
<circle cx="432" cy="128" r="2" fill="#0b3d2e"/>
<circle cx="432" cy="144" r="2" fill="#0b3d2e"/>
<circle cx="432" cy="160" r="2" fill="#0b3d2e"/>
<circle cx="432" cy="176" r="2" fill="#0b3d2e"/>
<circle cx="432" cy="192" r="2" fill="#0b3d2e"/>
<circle cx="432" cy="208" r="2" fill="#0b3d2e"/>
<circle cx="432" cy="224" r="2" fill="#0b3d2e"/>
<circle cx="432" cy="240" r="2" fill="#0b3d2e"/>
<circle cx="432" cy="256" r="2" fill="#0b3d2e"/>
<circle cx="432" cy="272" r="2" fill="#0b3d2e"/>
<circle cx="432" cy="288" r="2" fill="#0b3d2e"/>
<circle cx="432" cy="304" r="2" fill="#0b3d2e"/>
<circle cx="432" cy="320" r="2" fill="#0b3d2e"/>
<circle cx="432" cy="336" r="2" fill="#0b3d2e"/>
<circle cx="432" cy="352" r="2" fill="#0b3d2e"/>
<circle cx="432" cy="368" r="2" fill="#0b3d2e"/>
<circle cx="432" cy="384" r="2" fill="#0b3d2e"/>
<circle cx="432" cy="400" r="2" fill="#0b3d2e"/>
<circle cx="432" cy="416" r="2" fill="#0b3d2e"/>
<circle cx="432" cy="432" r="2" fill="#0b3d2e"/>
<circle cx="432" cy="448" r="2" fill="#0b3d2e"/>
<circle cx="432" cy="464" r="2" fill="#0b3d2e"/>
<circle cx="432" cy="480" r="2" fill="#0b3d2e"/>
<circle cx="432" cy="496" r="2" fill="#0b3d2e"/>
<polyline points="48,48 112,48 112,96" fill="none" stroke="#eab308" stroke-width="5" stroke-linecap="round" stroke-linejoin="round" opacity="0.9"/>
<polyline points="48,80 112,80 112,112" fill="none" stroke="#111827" stroke-width="5" stroke-linecap="round" stroke-linejoin="round" opacity="0.9"/>
<polyline points="112,112 128,112 128,240" fill="none" stroke="#111827" stroke-width="5" stroke-linecap="round" stroke-linejoin="round" opacity="0.9"/>
<polyline points="128,240 64,240 64,368" fill="none" stroke="#111827" stroke-width="5" stroke-linecap="round" stroke-linejoin="round" opacity="0.9"/>
<polyline points="64,368 64,416" fill="none" stroke="#111827" stroke-width="5" stroke-linecap="round" stroke-linejoin="round" opacity="0.9"/>
<polyline points="64,416 304,416 304,448" fill="none" stroke="#111827" stroke-width="5" stroke-linecap="round" stroke-linejoin="round" opacity="0.9"/>
<polyline points="304,448 416,448 416,336" fill="none" stroke="#111827" stroke-width="5" stroke-linecap="round" stroke-linejoin="round" opacity="0.9"/>
<polyline points="416,336 400,336 400,240" fill="none" stroke="#111827" stroke-width="5" stroke-linecap="round" stroke-linejoin="round" opacity="0.9"/>
<polyline points="400,240 304,240 304,208" fill="none" stroke="#111827" stroke-width="5" stroke-linecap="round" stroke-linejoin="round" opacity="0.9"/>
<polyline points="304,208 336,208 336,112" fill="none" stroke="#111827" stroke-width="5" stroke-linecap="round" stroke-linejoin="round" opacity="0.9"/>
<polyline points="336,96 272,96 272,208" fill="none" stroke="#f59e0b" stroke-width="5" stroke-linecap="round" stroke-linejoin="round" opacity="0.9"/>
<polyline points="272,208 400,208" fill="none" stroke="#f59e0b" stroke-width="5" stroke-linecap="round" stroke-linejoin="round" opacity="0.9"/>
<polyline points="400,208 400,224 144,224 144,240" fill="none" stroke="#f59e0b" stroke-width="5" stroke-linecap="round" stroke-linejoin="round" opacity="0.9"/>
<polyline points="112,240 48,240 48,368" fill="none" stroke="#14b8a6" stroke-width="3" stroke-linecap="round" stroke-linejoin="round" opacity="0.9"/>
<polyline points="112,256 48,256 48,416" fill="none" stroke="#22c55e" stroke-width="3" stroke-linecap="round" stroke-linejoin="round" opacity="0.9"/>
<polyline points="448,336 400,336 400,432" fill="none" stroke="#ec4899" stroke-width="5" stroke-linecap="round" stroke-linejoin="round" opacity="0.9"/>
<polyline points="400,432 272,432 272,448" fill="none" stroke="#ec4899" stroke-width="5" stroke-linecap="round" stroke-linejoin="round" opacity="0.9"/>
<rect x="14.929133858267718" y="29.10236220472441" width="66.14173228346456" height="100.78740157480314" rx="3" fill="#dc2626" opacity="0.9" stroke="#1e293b"/>
<text x="48" y="77.49606299212599" text-anchor="middle" font-size="11" font-weight="700" fill="#fff">J1</text>
<text x="48" y="89.49606299212599" text-anchor="middle" font-size="8" fill="rgba(255,255,255,0.9)">BATT_IN</text>
<circle cx="48" cy="48" r="4.5" fill="#9ca3af" stroke="#0b3d2e"/>
<text x="48" y="57" text-anchor="middle" font-size="5.5" fill="#f8fafc">+</text>
<circle cx="48" cy="80" r="4.5" fill="#9ca3af" stroke="#0b3d2e"/>
<text x="48" y="89" text-anchor="middle" font-size="5.5" fill="#f8fafc">-</text>
<rect x="98.01574803149607" y="81.95275590551181" width="251.96850393700788" height="44.09448818897637" rx="3" fill="#10b981" opacity="0.9" stroke="#1e293b"/>
<text x="224" y="102" text-anchor="middle" font-size="11" font-weight="700" fill="#fff">U1</text>
<text x="224" y="114" text-anchor="middle" font-size="8" fill="rgba(255,255,255,0.9)">PCM-8A</text>
<circle cx="112" cy="96" r="4.5" fill="#9ca3af" stroke="#0b3d2e"/>
<text x="112" y="105" text-anchor="middle" font-size="5.5" fill="#f8fafc">B+</text>
<circle cx="112" cy="112" r="4.5" fill="#111827" stroke="#0b3d2e"/>
<text x="112" y="121" text-anchor="middle" font-size="5.5" fill="#f8fafc">B-</text>
<circle cx="336" cy="96" r="4.5" fill="#9ca3af" stroke="#0b3d2e"/>
<text x="336" y="105" text-anchor="middle" font-size="5.5" fill="#f8fafc">P+</text>
<circle cx="336" cy="112" r="4.5" fill="#111827" stroke="#0b3d2e"/>
<text x="336" y="121" text-anchor="middle" font-size="5.5" fill="#f8fafc">P-</text>
<rect x="55.874015748031496" y="191.93700787401573" width="144.251968503937" height="112.1259842519685" rx="3" fill="#06b6d4" opacity="0.9" stroke="#1e293b"/>
<text x="128" y="246" text-anchor="middle" font-size="11" font-weight="700" fill="#fff">U2</text>
<text x="128" y="258" text-anchor="middle" font-size="8" fill="rgba(255,255,255,0.9)">CHGR</text>
<circle cx="112" cy="240" r="4.5" fill="#ef4444" stroke="#0b3d2e"/>
<text x="112" y="249" text-anchor="middle" font-size="5.5" fill="#f8fafc">5V</text>
<circle cx="128" cy="240" r="4.5" fill="#111827" stroke="#0b3d2e"/>
<text x="128" y="249" text-anchor="middle" font-size="5.5" fill="#f8fafc">GND</text>
<circle cx="144" cy="240" r="4.5" fill="#f59e0b" stroke="#0b3d2e"/>
<text x="144" y="249" text-anchor="middle" font-size="5.5" fill="#f8fafc">BAT</text>
<circle cx="112" cy="256" r="4.5" fill="#f59e0b" stroke="#0b3d2e"/>
<text x="112" y="265" text-anchor="middle" font-size="5.5" fill="#f8fafc">STAT</text>
<rect x="221.85826771653544" y="202.01574803149606" width="132.28346456692913" height="251.96850393700785" rx="3" fill="#f59e0b" opacity="0.9" stroke="#1e293b"/>
<text x="288" y="326" text-anchor="middle" font-size="11" font-weight="700" fill="#fff">U3</text>
<text x="288" y="338" text-anchor="middle" font-size="8" fill="rgba(255,255,255,0.9)">BOOST</text>
<circle cx="272" cy="208" r="4.5" fill="#ef4444" stroke="#0b3d2e"/>
<text x="272" y="217" text-anchor="middle" font-size="5.5" fill="#f8fafc">VIN+</text>
<circle cx="304" cy="208" r="4.5" fill="#111827" stroke="#0b3d2e"/>
<text x="304" y="217" text-anchor="middle" font-size="5.5" fill="#f8fafc">VIN-</text>
<circle cx="272" cy="448" r="4.5" fill="#f59e0b" stroke="#0b3d2e"/>
<text x="272" y="457" text-anchor="middle" font-size="5.5" fill="#f8fafc">VOUT+</text>
<circle cx="304" cy="448" r="4.5" fill="#111827" stroke="#0b3d2e"/>
<text x="304" y="457" text-anchor="middle" font-size="5.5" fill="#f8fafc">VOUT-</text>
<rect x="368.503937007874" y="192.50393700787401" width="62.99212598425197" height="62.99212598425197" rx="3" fill="#475569" opacity="0.9" stroke="#1e293b"/>
<text x="400" y="222" text-anchor="middle" font-size="11" font-weight="700" fill="#fff">C1</text>
<text x="400" y="234" text-anchor="middle" font-size="8" fill="rgba(255,255,255,0.9)">1000u LE</text>
<circle cx="400" cy="208" r="4.5" fill="#9ca3af" stroke="#0b3d2e"/>
<text x="400" y="217" text-anchor="middle" font-size="5.5" fill="#f8fafc">+</text>
<circle cx="400" cy="240" r="4.5" fill="#9ca3af" stroke="#0b3d2e"/>
<text x="400" y="249" text-anchor="middle" font-size="5.5" fill="#f8fafc">-</text>
<rect x="354.0787401574803" y="416.88188976377955" width="59.84251968503936" height="30.236220472440944" rx="3" fill="#a855f7" opacity="0.9" stroke="#1e293b"/>
<text x="384" y="430" text-anchor="middle" font-size="11" font-weight="700" fill="#fff">RV1</text>
<text x="384" y="442" text-anchor="middle" font-size="8" fill="rgba(255,255,255,0.9)">200k ADJ</text>
<circle cx="368" cy="432" r="4.5" fill="#9ca3af" stroke="#0b3d2e"/>
<text x="368" y="441" text-anchor="middle" font-size="5.5" fill="#f8fafc">1</text>
<circle cx="384" cy="432" r="4.5" fill="#9ca3af" stroke="#0b3d2e"/>
<text x="384" y="441" text-anchor="middle" font-size="5.5" fill="#f8fafc">W</text>
<circle cx="400" cy="432" r="4.5" fill="#9ca3af" stroke="#0b3d2e"/>
<text x="400" y="441" text-anchor="middle" font-size="5.5" fill="#f8fafc">3</text>
<rect x="366.1102362204724" y="302.92913385826773" width="100.78740157480314" height="66.14173228346456" rx="3" fill="#dc2626" opacity="0.9" stroke="#1e293b"/>
<text x="416.503937007874" y="334" text-anchor="middle" font-size="11" font-weight="700" fill="#fff">J2</text>
<text x="416.503937007874" y="346" text-anchor="middle" font-size="8" fill="rgba(255,255,255,0.9)">BOOST_5V</text>
<circle cx="448" cy="336" r="4.5" fill="#9ca3af" stroke="#0b3d2e"/>
<text x="448" y="345" text-anchor="middle" font-size="5.5" fill="#f8fafc">+</text>
<circle cx="416" cy="336" r="4.5" fill="#9ca3af" stroke="#0b3d2e"/>
<text x="416" y="345" text-anchor="middle" font-size="5.5" fill="#f8fafc">-</text>
<rect x="31.11811023622047" y="349.73228346456693" width="49.763779527559066" height="36.53543307086614" rx="3" fill="#d97706" opacity="0.9" stroke="#1e293b"/>
<text x="56" y="366" text-anchor="middle" font-size="11" font-weight="700" fill="#fff">J3</text>
<text x="56" y="378" text-anchor="middle" font-size="8" fill="rgba(255,255,255,0.9)">5V_CHG_IN</text>
<circle cx="48" cy="368" r="4.5" fill="#9ca3af" stroke="#0b3d2e"/>
<text x="48" y="377" text-anchor="middle" font-size="5.5" fill="#f8fafc">1</text>
<circle cx="64" cy="368" r="4.5" fill="#9ca3af" stroke="#0b3d2e"/>
<text x="64" y="377" text-anchor="middle" font-size="5.5" fill="#f8fafc">2</text>
<rect x="31.11811023622047" y="397.73228346456693" width="49.763779527559066" height="36.53543307086614" rx="3" fill="#d97706" opacity="0.9" stroke="#1e293b"/>
<text x="56" y="414" text-anchor="middle" font-size="11" font-weight="700" fill="#fff">J4</text>
<text x="56" y="426" text-anchor="middle" font-size="8" fill="rgba(255,255,255,0.9)">STAT/GND</text>
<circle cx="48" cy="416" r="4.5" fill="#9ca3af" stroke="#0b3d2e"/>
<text x="48" y="425" text-anchor="middle" font-size="5.5" fill="#f8fafc">1</text>
<circle cx="64" cy="416" r="4.5" fill="#9ca3af" stroke="#0b3d2e"/>
<text x="64" y="425" text-anchor="middle" font-size="5.5" fill="#f8fafc">2</text>
<rect x="25" y="329" width="14" height="14" rx="7" fill="#0ea5e9" stroke="#0f172a"/>
<text x="32" y="326" text-anchor="middle" font-size="7" fill="#0f172a">5V_CHG &lt;- Board A</text>
<rect x="425" y="345" width="14" height="14" rx="7" fill="#f97316" stroke="#0f172a"/>
<text x="432" y="342" text-anchor="middle" font-size="7" fill="#0f172a">BOOST_5V -&gt; Board A</text>
<text x="32" y="6.399999999999999" font-size="8.5" font-weight="600" fill="#b91c1c">BOARD B - battery. LiPo pouch 67x34x6 lies BESIDE the board (Velcro + foam), 7.5A fuse inline in the + lead. Keep the cell &gt;=25mm from any converter.</text>
<text x="24" y="16" font-size="13" font-weight="700" fill="#0f172a">Pip Power — Board B (battery) — 26×30 holes ≈ 66×76mm</text>
</svg>